<svg version="1.1" xmlns="http://www.w3.org/2000/svg" xmlns:xlink="http://www.w3.org/1999/xlink" x="0px" y="0px" style="enable-background:new 0 0 841.89 595.28;" xml:space="preserve" viewBox="276.37 163.25 309.98 232.2">
<style type="text/css">
	.st0{display:none;}
	.st1{display:inline;}
	.st2{fill:#F7D844;}
	.st3{fill:#EDA641;}
	.st4{fill:#689C39;}
	.st5{fill:#95C11F;}
	.st6{fill:#006633;}
	.st7{font-family:'MyriadPro-Regular';}
	.st8{font-size:12px;}
	.st9{display:inline;fill:url(#SVGID_1_);}
	.st10{clip-path:url(#SVGID_3_);}
	.st11{fill:url(#SVGID_4_);}
	.st12{display:inline;fill:none;stroke:#FFFFFF;stroke-width:50;stroke-miterlimit:10;}
	.st13{display:inline;fill:none;stroke:#FFFFFF;stroke-width:50;stroke-linecap:round;stroke-miterlimit:10;}
	.st14{display:inline;fill:none;stroke:#FFFFFF;stroke-width:20;stroke-linecap:round;stroke-miterlimit:10;}
	.st15{display:inline;fill:none;stroke:#FFFFFF;stroke-width:10;stroke-miterlimit:10;}
	.st16{display:inline;fill:#006633;}
	.st17{fill:url(#SVGID_5_);}
	.st18{fill:url(#SVGID_6_);}
	.st19{fill:url(#SVGID_7_);}
	.st20{font-family:'GreekFreakRegular';}
	.st21{font-size:60.5602px;}
	.st22{fill:url(#SVGID_8_);}
	.st23{fill:url(#SVGID_9_);}
	.st24{fill:url(#SVGID_10_);}
	.st25{fill:url(#SVGID_11_);}
	.st26{fill:url(#SVGID_12_);}
	.st27{fill:url(#SVGID_13_);}
	.st28{fill:url(#SVGID_14_);}
</style>
<g id="Calque_3_-_copie_2" class="st0">
	<g id="Calque_5_-_copie" class="st1">
		<g>
			<g>
				
					<rect x="308.49" y="190.91" transform="matrix(0.9686 -0.2485 0.2485 0.9686 -32.7949 123.0126)" class="st2" width="324.71" height="1"/>
			</g>
		</g>
		<g>
			<g>
				
					<rect x="548.33" y="225.6" transform="matrix(0.7869 -0.617 0.617 0.7869 -13.4371 413.2885)" class="st3" width="86.77" height="1"/>
			</g>
		</g>
		<g>
			<g>
				
					<rect x="263.48" y="399.72" transform="matrix(0.8596 -0.5109 0.5109 0.8596 -139.29 293.4377)" class="st4" width="401.84" height="1"/>
			</g>
		</g>
		<g>
			<g>
				
					<rect x="546.08" y="467.9" transform="matrix(0.7533 -0.6577 0.6577 0.7533 -157.7654 516.2226)" class="st5" width="126.28" height="1"/>
			</g>
		</g>
		<g>
			<g>
				<rect x="482.06" y="350.43" class="st6" width="155.1" height="1"/>
			</g>
		</g>
		<g>
			<g>
				
					<rect x="328.79" y="376.3" transform="matrix(0.9751 -0.2218 0.2218 0.9751 -72.4707 108.2251)" class="st6" width="233.72" height="1"/>
			</g>
		</g>
		<g>
			<g>
				
					<rect x="550.9" y="252.57" transform="matrix(0.3925 -0.9197 0.9197 0.3925 119.7208 687.3886)" class="st3" width="58.63" height="1"/>
			</g>
		</g>
		<g>
			<g>
				
					<rect x="524.85" y="277.08" transform="matrix(0.2558 -0.9667 0.9667 0.2558 161.8588 765.4232)" class="st3" width="106.49" height="1"/>
			</g>
		</g>
		<g>
			<g>
				
					<rect x="290.2" y="215.7" transform="matrix(0.9369 -0.3497 0.3497 0.9369 -48.0382 166.3637)" class="st2" width="292.9" height="1"/>
			</g>
		</g>
		<g>
			<g>
				
					<rect x="273.84" y="240.94" transform="matrix(0.8783 -0.4782 0.4782 0.8783 -62.666 236.7189)" class="st2" width="319.49" height="1"/>
			</g>
		</g>
		<g>
			<g>
				
					<rect x="580.77" y="358.77" transform="matrix(0.7827 -0.6224 0.6224 0.7827 -132.8504 452.3012)" class="st5" width="1" height="115.24"/>
			</g>
		</g>
		<g>
			<g>
				
					<rect x="515.2" y="303.26" transform="matrix(0.4175 -0.9087 0.9087 0.4175 -76.6062 710.2599)" class="st5" width="1" height="223.25"/>
			</g>
		</g>
		<g>
			<g>
				
					<rect x="547.45" y="235.8" transform="matrix(0.8282 -0.5604 0.5604 0.8282 -107.1954 368.788)" class="st5" width="1" height="246.9"/>
			</g>
		</g>
		<g>
			<g>
				
					<rect x="573.35" y="213.27" transform="matrix(0.2795 -0.9602 0.9602 0.2795 145.396 752.1677)" class="st4" width="1" height="131.88"/>
			</g>
		</g>
		<g>
			<g>
				
					<rect x="299.62" y="323.78" transform="matrix(0.9876 -0.1571 0.1571 0.9876 -45.1194 77.7842)" class="st4" width="339.64" height="1"/>
			</g>
		</g>
		<g>
			<g>
				
					<rect x="507.27" y="339.39" transform="matrix(0.8088 -0.5881 0.5881 0.8088 -89.1633 405.5129)" class="st4" width="143.64" height="1"/>
			</g>
		</g>
		<text transform="matrix(1 0 0 1 641.0038 153.8717)" class="st7 st8">F7D844</text>
		<text transform="matrix(1 0 0 1 637.1611 202.2024)" class="st7 st8">EDA641</text>
		<text transform="matrix(1 0 0 1 645.061 298.3054)" class="st7 st8">689C39</text>
		<text transform="matrix(1 0 0 1 645.4692 351.4287)" class="st7 st8">006633</text>
		<text transform="matrix(1 0 0 1 664.3605 426.4902)" class="st7 st8">95C11F</text>
	</g>
</g>
<g id="Calque_3" class="st0">
	<g>
		<linearGradient id="SVGID_1_" gradientUnits="userSpaceOnUse" x1="431.3625" y1="163.238" x2="431.3625" y2="447.224">
			<stop offset="0.6034" style="stop-color:#689C39"/>
			<stop offset="0.7274" style="stop-color:#6A9E38;stop-opacity:0.6872"/>
			<stop offset="0.8204" style="stop-color:#71A436;stop-opacity:0.4528"/>
			<stop offset="0.9033" style="stop-color:#7EAE31;stop-opacity:0.2439"/>
			<stop offset="0.9798" style="stop-color:#8FBC25;stop-opacity:0.0509"/>
			<stop offset="1" style="stop-color:#95C11F;stop-opacity:0"/>
		</linearGradient>
		<circle class="st9" cx="431.36" cy="305.23" r="141.99"/>
	</g>
	<g class="st1">
		<defs>
			<path id="SVGID_2_" d="M431.36,363.82c52.86,17.29,97.77,13.84,125.27,8.31c10.67-19.93,16.72-42.71,16.72-66.9     c0-78.42-63.57-141.99-141.99-141.99s-141.99,63.57-141.99,141.99c0,11.95,1.48,23.55,4.25,34.63     c1.47,5.88,3.31,11.61,5.49,17.17C325.59,350.76,373.76,344.98,431.36,363.82z"/>
		</defs>
		<clipPath id="SVGID_3_">
			<use xlink:href="#SVGID_2_" style="overflow:visible;"/>
		</clipPath>
		<g class="st10">
			<linearGradient id="SVGID_4_" gradientUnits="userSpaceOnUse" x1="340.089" y1="196.4555" x2="522.6359" y2="414.0065">
				<stop offset="0" style="stop-color:#F7D844"/>
				<stop offset="0.2264" style="stop-color:#F6D644"/>
				<stop offset="0.4661" style="stop-color:#F4CE44"/>
				<stop offset="0.7119" style="stop-color:#F2BF43"/>
				<stop offset="0.9605" style="stop-color:#EEAA41"/>
				<stop offset="1" style="stop-color:#EDA641"/>
			</linearGradient>
			<circle class="st11" cx="431.36" cy="305.23" r="141.99"/>
		</g>
	</g>
	<path class="st12" d="M277.14,363.82c0,0,66.07-28.83,154.23,0s154.23,0,154.23,0"/>
	<path class="st13" d="M276.84,363.13c2.8-1.97,5.76-3.55,8.74-5.17c3.01-1.53,6.08-2.92,9.19-4.27c6.22-2.68,12.66-4.84,19.19-6.72   c13.09-3.66,26.64-5.88,40.31-6.72c1.71-0.12,3.42-0.2,5.13-0.24c1.71-0.05,3.43-0.14,5.14-0.15c3.43,0,6.86,0.02,10.29,0.17   c6.87,0.17,13.72,0.9,20.54,1.75c3.41,0.45,6.81,0.98,10.19,1.64c1.69,0.32,3.39,0.61,5.07,0.96l5.04,1.1   c1.68,0.36,3.35,0.78,5.01,1.23l4.98,1.33c3.31,0.92,6.59,1.95,9.88,2.94c2.97,0.92,5.91,1.92,8.89,2.79   c2.99,0.83,5.97,1.74,8.98,2.48l4.5,1.2c1.5,0.38,3.02,0.71,4.53,1.08c3.02,0.75,6.07,1.31,9.11,2c12.19,2.5,24.55,4.26,37.06,5.32   c12.51,1.1,25.16,1.36,37.94,0.97c6.4-0.18,12.8-0.64,19.27-1.17c3.23-0.28,6.47-0.64,9.7-1.09c3.26-0.36,6.5-0.9,9.74-1.44   l0.21-0.03"/>
	<path class="st14" d="M276.84,301.13c2.8-1.97,5.76-3.55,8.74-5.17c3.01-1.53,6.08-2.92,9.19-4.27c6.22-2.68,12.66-4.84,19.19-6.72   c13.09-3.66,26.64-5.88,40.31-6.72c1.71-0.12,3.42-0.2,5.13-0.24c1.71-0.05,3.43-0.14,5.14-0.15c3.43,0,6.86,0.02,10.29,0.17   c6.87,0.17,13.72,0.9,20.54,1.75c3.41,0.45,6.81,0.98,10.19,1.64c1.69,0.32,3.39,0.61,5.07,0.96l5.04,1.1   c1.68,0.36,3.35,0.78,5.01,1.23l4.98,1.33c3.31,0.92,6.59,1.95,9.88,2.94c2.97,0.92,5.91,1.92,8.89,2.79   c2.99,0.83,5.97,1.74,8.98,2.48l4.5,1.2c1.5,0.38,3.02,0.71,4.53,1.08c3.02,0.75,6.07,1.31,9.11,2c12.19,2.5,24.55,4.26,37.06,5.32   c12.51,1.1,25.16,1.36,37.94,0.97c6.4-0.18,12.8-0.64,19.27-1.17c3.23-0.28,6.47-0.64,9.7-1.09c3.26-0.36,6.5-0.9,9.74-1.44   l0.21-0.03"/>
	<path class="st15" d="M276.84,258.12c2.8-1.97,5.76-3.55,8.74-5.17c3.01-1.53,6.08-2.92,9.19-4.27c6.22-2.68,12.66-4.84,19.19-6.72   c13.09-3.66,26.64-5.88,40.31-6.72c1.71-0.12,3.42-0.2,5.13-0.24c1.71-0.05,3.43-0.14,5.14-0.15c3.43,0,6.86,0.02,10.29,0.17   c6.87,0.17,13.72,0.9,20.54,1.75c3.41,0.45,6.81,0.98,10.19,1.64c1.69,0.32,3.39,0.61,5.07,0.96l5.04,1.1   c1.68,0.36,3.35,0.78,5.01,1.23l4.98,1.33c3.31,0.92,6.59,1.95,9.88,2.94c2.97,0.92,5.91,1.92,8.89,2.79   c2.99,0.83,5.97,1.74,8.98,2.48l4.5,1.2c1.5,0.38,3.02,0.71,4.53,1.08c3.02,0.75,6.07,1.31,9.11,2c12.19,2.5,24.55,4.26,37.06,5.32   c12.51,1.1,25.16,1.36,37.94,0.97c6.4-0.18,12.8-0.64,19.27-1.17c3.23-0.28,6.47-0.64,9.7-1.09c3.26-0.36,6.5-0.9,9.74-1.44   l0.21-0.03"/>
	<path class="st16" d="M429.31,363.16c0.68,0.22,1.37,0.43,2.05,0.65c31.58,10.33,60.32,13.25,84.21,12.76   c-15.44-22.18-21.8-47.93-28.35-78.27C472.58,322.13,454.44,343.7,429.31,363.16z"/>
	<g class="st1">
		<linearGradient id="SVGID_5_" gradientUnits="userSpaceOnUse" x1="269.637" y1="358.8552" x2="593.0879" y2="358.8552">
			<stop offset="0.3631" style="stop-color:#689C39"/>
			<stop offset="0.4924" style="stop-color:#78A934"/>
			<stop offset="0.6672" style="stop-color:#88B62B"/>
			<stop offset="0.8383" style="stop-color:#92BE23"/>
			<stop offset="1" style="stop-color:#95C11F"/>
		</linearGradient>
		<path class="st17" d="M276.84,363.13c2.8-1.97,5.76-3.55,8.74-5.17c3.01-1.53,6.08-2.92,9.19-4.27    c6.22-2.68,12.66-4.84,19.19-6.72c13.09-3.66,26.64-5.88,40.31-6.72c1.71-0.12,3.42-0.2,5.13-0.24c1.71-0.05,3.43-0.14,5.14-0.15    c3.43,0,6.86,0.02,10.29,0.17c6.87,0.17,13.72,0.9,20.54,1.75c3.41,0.45,6.81,0.98,10.19,1.64c1.69,0.32,3.39,0.61,5.07,0.96    l5.04,1.1c1.68,0.36,3.35,0.78,5.01,1.23l4.98,1.33c3.31,0.92,6.59,1.95,9.88,2.94c2.97,0.92,5.91,1.92,8.89,2.79    c2.99,0.83,5.97,1.74,8.98,2.48l4.5,1.2c1.5,0.38,3.02,0.71,4.53,1.08c3.02,0.75,6.07,1.31,9.11,2    c12.19,2.5,24.55,4.26,37.06,5.32c12.51,1.1,25.16,1.36,37.94,0.97c6.4-0.18,12.8-0.64,19.27-1.17c3.23-0.28,6.47-0.64,9.7-1.09    c3.26-0.36,6.5-0.9,9.74-1.44l0.21-0.03c0.4-0.07,0.78,0.2,0.85,0.6c0.06,0.35-0.14,0.68-0.46,0.81    c-24.58,9.71-51.08,13.39-77.35,13.35c-6.58-0.04-13.16-0.3-19.71-0.89c-3.28-0.23-6.55-0.65-9.82-1.01    c-1.64-0.18-3.26-0.45-4.89-0.67c-1.63-0.24-3.26-0.44-4.88-0.74c-12.98-2.15-25.81-5.27-38.34-9.3    c-12.37-4.06-25.03-7.22-37.86-9.43c-1.6-0.31-3.21-0.51-4.82-0.76c-1.61-0.23-3.22-0.51-4.83-0.7c-3.23-0.38-6.46-0.81-9.71-1.06    c-6.48-0.62-12.99-0.92-19.5-1c-13.02-0.18-26.06,0.76-38.94,2.73c-6.44,0.96-12.84,2.2-19.17,3.74    c-6.31,1.57-12.62,3.37-18.62,5.76c-0.38,0.15-0.82-0.03-0.97-0.42c-0.13-0.33-0.01-0.69,0.26-0.89L276.84,363.13z"/>
	</g>
	<g class="st1">
		<linearGradient id="SVGID_6_" gradientUnits="userSpaceOnUse" x1="464.453" y1="317.8972" x2="536.7045" y2="317.8972">
			<stop offset="0" style="stop-color:#95C11F"/>
			<stop offset="0.1928" style="stop-color:#92BE23"/>
			<stop offset="0.397" style="stop-color:#88B62B"/>
			<stop offset="0.6056" style="stop-color:#78A934"/>
			<stop offset="0.7598" style="stop-color:#689C39"/>
		</linearGradient>
		<path class="st18" d="M472.68,240.86c1.16,1.48,2.13,3.03,3.21,4.55c1.01,1.54,1.96,3.09,2.88,4.67c1.87,3.13,3.52,6.33,5.13,9.55    c3.17,6.45,5.85,13.05,8.27,19.66c4.78,13.25,8.37,26.6,11.65,39.56c3.32,12.98,6.34,25.52,10.39,37.73    c1.99,6.14,4.25,12.22,6.83,18.41c1.27,3.11,2.7,6.2,4.13,9.39c0.75,1.57,1.51,3.16,2.25,4.81c0.74,1.65,1.59,3.22,2.3,4.97    l0.12,0.29c0.15,0.37-0.02,0.79-0.39,0.94c-0.27,0.11-0.56,0.05-0.76-0.13c-5.16-4.71-9.91-9.88-14.17-15.45    c-4.2-5.61-7.87-11.62-11.04-17.86c-6.37-12.5-10.65-25.91-14.19-39.37c-3.37-13.53-6.02-27.17-8.88-40.74    c-1.42-6.79-2.88-13.57-4.43-20.32c-1.48-6.77-3.05-13.52-4.75-20.24c-0.1-0.39,0.14-0.78,0.52-0.88    c0.29-0.07,0.57,0.04,0.75,0.25L472.68,240.86z"/>
	</g>
	<g class="st1">
		<linearGradient id="SVGID_7_" gradientUnits="userSpaceOnUse" x1="389.4037" y1="310.6695" x2="518.8213" y2="310.6695">
			<stop offset="0" style="stop-color:#95C11F"/>
			<stop offset="0.2226" style="stop-color:#92BE23"/>
			<stop offset="0.4583" style="stop-color:#88B62B"/>
			<stop offset="0.6991" style="stop-color:#78A934"/>
			<stop offset="0.8771" style="stop-color:#689C39"/>
		</linearGradient>
		<path class="st19" d="M512.01,246.86c-0.34,7.87-1.59,15.39-3.14,22.86c-0.84,3.72-1.79,7.42-2.82,11.09    c-0.52,1.85-1.15,3.65-1.75,5.48c-0.62,1.82-1.18,3.66-1.88,5.45c-2.76,7.22-6.04,14.33-10.08,21.16    c-0.99,1.72-2.07,3.38-3.12,5.07c-1.06,1.68-2.28,3.28-3.41,4.92c-1.19,1.6-2.36,3.23-3.62,4.78l-3.89,4.58    c-2.6,3.05-5.52,5.79-8.38,8.58c-0.73,0.68-1.45,1.37-2.19,2.03l-2.29,1.9c-1.53,1.27-3.04,2.54-4.61,3.75    c-1.53,1.26-3.17,2.35-4.78,3.48c-1.6,1.14-3.26,2.19-4.89,3.27c-3.24,2.2-6.73,3.94-10.11,5.84c-0.85,0.47-1.7,0.93-2.56,1.37    l-2.63,1.21c-1.75,0.81-3.5,1.61-5.28,2.35l-2.65,1.13c-0.88,0.38-1.76,0.77-2.68,1.06c-1.82,0.63-3.62,1.29-5.45,1.89    c-3.66,1.19-7.29,2.38-11.09,3.19c-3.75,0.9-7.57,1.62-11.46,2.14l-0.23,0.03c-0.4,0.05-0.77-0.23-0.82-0.63    c-0.04-0.31,0.11-0.59,0.37-0.74c6.41-3.62,12.91-7.07,19.13-10.99l4.74-2.81c1.59-0.93,3.09-1.98,4.64-2.96l4.62-3l2.31-1.5    l2.23-1.61c12.03-8.38,23.26-17.92,32.85-28.94c9.76-10.87,17.82-23.19,24.69-36.15c1.69-3.26,3.34-6.54,4.99-9.82l4.71-9.98    l4.64-10.02l4.54-10.08c0.16-0.37,0.6-0.53,0.96-0.36c0.28,0.13,0.44,0.4,0.43,0.69L512.01,246.86z"/>
	</g>
	<text transform="matrix(1 0 0 1 261.9685 424.4072)" class="st1"><tspan x="0" y="0" class="st6 st20 st21">Domaine</tspan><tspan x="90.01" y="50.47" class="st6 st20 st21">du Soleil</tspan></text>
	<g class="st1">
		<linearGradient id="SVGID_8_" gradientUnits="userSpaceOnUse" x1="269.637" y1="502.8061" x2="593.0879" y2="502.8061">
			<stop offset="0.3631" style="stop-color:#689C39"/>
			<stop offset="0.4924" style="stop-color:#78A934"/>
			<stop offset="0.6672" style="stop-color:#88B62B"/>
			<stop offset="0.8383" style="stop-color:#92BE23"/>
			<stop offset="1" style="stop-color:#95C11F"/>
		</linearGradient>
		<path class="st22" d="M276.84,507.08c2.8-1.97,5.76-3.55,8.74-5.17c3.01-1.53,6.08-2.92,9.19-4.27    c6.22-2.68,12.66-4.84,19.19-6.72c13.09-3.66,26.64-5.88,40.31-6.72c1.71-0.12,3.42-0.2,5.13-0.24c1.71-0.05,3.43-0.14,5.14-0.15    c3.43,0,6.86,0.02,10.29,0.17c6.87,0.17,13.72,0.9,20.54,1.75c3.41,0.45,6.81,0.98,10.19,1.64c1.69,0.32,3.39,0.61,5.07,0.96    l5.04,1.1c1.68,0.36,3.35,0.78,5.01,1.23l4.98,1.33c3.31,0.92,6.59,1.95,9.88,2.94c2.97,0.92,5.91,1.92,8.89,2.79    c2.99,0.83,5.97,1.74,8.98,2.48l4.5,1.2c1.5,0.38,3.02,0.71,4.53,1.08c3.02,0.75,6.07,1.31,9.11,2    c12.19,2.5,24.55,4.26,37.06,5.32c12.51,1.1,25.16,1.36,37.94,0.97c6.4-0.18,12.8-0.64,19.27-1.17c3.23-0.28,6.47-0.64,9.7-1.09    c3.26-0.36,6.5-0.9,9.74-1.44l0.21-0.03c0.4-0.07,0.78,0.2,0.85,0.6c0.06,0.35-0.14,0.68-0.46,0.81    c-24.58,9.71-51.08,13.39-77.35,13.35c-6.58-0.04-13.16-0.3-19.71-0.89c-3.28-0.23-6.55-0.65-9.82-1.01    c-1.64-0.18-3.26-0.45-4.89-0.67c-1.63-0.24-3.26-0.44-4.88-0.74c-12.98-2.15-25.81-5.27-38.34-9.3    c-12.37-4.06-25.03-7.22-37.86-9.43c-1.6-0.31-3.21-0.51-4.82-0.76c-1.61-0.23-3.22-0.51-4.83-0.7c-3.23-0.38-6.46-0.81-9.71-1.06    c-6.48-0.62-12.99-0.92-19.5-1c-13.02-0.18-26.06,0.76-38.94,2.73c-6.44,0.96-12.84,2.2-19.17,3.74    c-6.31,1.57-12.62,3.37-18.62,5.76c-0.38,0.15-0.82-0.03-0.97-0.42c-0.13-0.33-0.01-0.69,0.26-0.89L276.84,507.08z"/>
	</g>
</g>
<g id="Calque_3_-_copie">
	<g>
		<linearGradient id="SVGID_9_" gradientUnits="userSpaceOnUse" x1="373.8041" y1="168.174" x2="556.351" y2="385.7249">
			<stop offset="0" style="stop-color:#F7D844"/>
			<stop offset="0.2264" style="stop-color:#F6D644"/>
			<stop offset="0.4661" style="stop-color:#F4CE44"/>
			<stop offset="0.7119" style="stop-color:#F2BF43"/>
			<stop offset="0.9605" style="stop-color:#EEAA41"/>
			<stop offset="1" style="stop-color:#EDA641"/>
		</linearGradient>
		<path class="st23" d="M312.58,237.16c13.28-3.72,27.19-6.04,41.38-6.9c1.63-0.11,3.38-0.2,5.3-0.25c0.57-0.02,1.15-0.04,1.73-0.06    c1.17-0.04,2.34-0.09,3.5-0.1c3.4,0,6.97,0.02,10.51,0.18c7.27,0.18,14.38,0.97,20.98,1.79c3.86,0.51,7.29,1.06,10.53,1.69    c0.55,0.1,1.13,0.21,1.7,0.32c1.14,0.21,2.29,0.42,3.42,0.65l5.1,1.11c1.7,0.37,3.48,0.81,5.28,1.3l4.94,1.32    c2.54,0.7,5.03,1.46,7.44,2.2l2.6,0.79c1.15,0.36,2.25,0.71,3.35,1.07c1.81,0.58,3.68,1.18,5.5,1.71    c0.95,0.26,1.96,0.55,2.97,0.84c2,0.57,3.89,1.12,5.82,1.59l4.59,1.23c0.87,0.22,1.8,0.44,2.72,0.65    c0.56,0.13,1.12,0.26,1.68,0.39c1.76,0.44,3.47,0.8,5.29,1.18c1.24,0.26,2.47,0.52,3.71,0.8c11.8,2.42,24.06,4.18,36.42,5.22    c11.92,1.05,24.14,1.36,37.37,0.96c6.33-0.18,12.63-0.64,18.07-1.08c-20.09-54.02-72.11-92.51-133.13-92.51    c-54.62,0-102.03,30.85-125.78,76.07C307.82,238.57,310.15,237.86,312.58,237.16z"/>
		<linearGradient id="SVGID_10_" gradientUnits="userSpaceOnUse" x1="354.3958" y1="184.4507" x2="536.9427" y2="402.0016">
			<stop offset="0" style="stop-color:#F7D844"/>
			<stop offset="0.2264" style="stop-color:#F6D644"/>
			<stop offset="0.4661" style="stop-color:#F4CE44"/>
			<stop offset="0.7119" style="stop-color:#F2BF43"/>
			<stop offset="0.9605" style="stop-color:#EEAA41"/>
			<stop offset="1" style="stop-color:#EDA641"/>
		</linearGradient>
		<path class="st24" d="M546.71,266.83c-3.82,0.12-7.55,0.18-11.23,0.18c-9.43,0-18.44-0.39-27.29-1.16    c-12.76-1.08-25.42-2.9-37.62-5.4l-0.1-0.02c-1.2-0.27-2.4-0.52-3.59-0.77c-1.83-0.38-3.72-0.78-5.61-1.25    c-0.49-0.12-1.03-0.24-1.56-0.36c-1-0.23-2-0.46-3-0.72l-4.56-1.22c-2.01-0.5-4.08-1.09-6.07-1.66c-0.98-0.28-1.96-0.56-2.95-0.83    c-2.02-0.59-3.95-1.21-5.82-1.81c-1.08-0.34-2.15-0.69-3.23-1.02l-2.59-0.79c-2.34-0.72-4.77-1.46-7.14-2.11l-4.94-1.32    c-1.65-0.46-3.25-0.85-4.77-1.18l-5.05-1.1c-1.01-0.21-2.08-0.4-3.15-0.6c-0.6-0.11-1.19-0.22-1.79-0.33    c-3.06-0.6-6.3-1.12-9.91-1.6c-6.32-0.78-13.15-1.54-20.01-1.71l-0.1,0c-3.17-0.14-6.32-0.17-10.06-0.17    c-1.03,0.01-2.11,0.05-3.18,0.09c-0.61,0.02-1.22,0.05-1.82,0.06c-1.78,0.05-3.39,0.13-4.93,0.23    c-13.53,0.82-26.74,3.02-39.31,6.54c-5.78,1.66-10.93,3.4-15.64,5.29c-3.88,9.61-6.74,19.74-8.45,30.26    c6-2.56,12.53-4.84,19.99-6.98c13.64-3.82,27.91-6.2,42.46-7.09c1.66-0.12,3.47-0.2,5.46-0.26c0.55-0.02,1.11-0.04,1.68-0.06    c1.22-0.05,2.44-0.09,3.66-0.1c3.99-0.01,7.32,0.03,10.73,0.18c7.47,0.19,14.71,0.99,21.42,1.82c4,0.53,7.53,1.1,10.87,1.75    c0.52,0.1,1.08,0.2,1.64,0.31c1.18,0.22,2.36,0.43,3.54,0.68l0.1,0.02l5.04,1.1c1.79,0.39,3.66,0.85,5.54,1.37l4.91,1.31    c2.65,0.73,5.17,1.5,7.61,2.25l2.58,0.78c1.21,0.38,2.33,0.73,3.45,1.09c1.83,0.59,3.57,1.15,5.3,1.65c1,0.28,2,0.56,3,0.85    c1.96,0.56,3.81,1.09,5.65,1.55l0.17,0.05l4.45,1.19c0.87,0.22,1.74,0.42,2.61,0.62c0.57,0.13,1.14,0.26,1.72,0.4    c1.71,0.42,3.38,0.78,5.15,1.15c1.25,0.26,2.5,0.52,3.74,0.8c11.59,2.38,23.63,4.1,35.79,5.13c11.74,1.03,23.77,1.34,36.79,0.94    c6.61-0.19,13.18-0.68,18.75-1.15c2.63-0.23,5.24-0.52,7.79-0.85c-0.81-9.41-2.54-18.55-5.1-27.34c-0.48,0.05-0.95,0.1-1.43,0.14    C560.48,266.12,553.64,266.63,546.71,266.83z"/>
		<linearGradient id="SVGID_11_" gradientUnits="userSpaceOnUse" x1="333.0213" y1="202.3861" x2="515.5682" y2="419.937">
			<stop offset="0" style="stop-color:#F7D844"/>
			<stop offset="0.2264" style="stop-color:#F6D644"/>
			<stop offset="0.4661" style="stop-color:#F4CE44"/>
			<stop offset="0.7119" style="stop-color:#F2BF43"/>
			<stop offset="0.9605" style="stop-color:#EEAA41"/>
			<stop offset="1" style="stop-color:#EDA641"/>
		</linearGradient>
		<path class="st25" d="M546.86,314.83c-3.86,0.12-7.65,0.18-11.37,0.18c-9.57,0-18.73-0.39-27.73-1.18    c-12.94-1.09-25.8-2.94-38.19-5.48l-0.21-0.04c-1.17-0.27-2.34-0.51-3.51-0.76c-1.87-0.39-3.81-0.8-5.79-1.29    c-0.43-0.1-0.96-0.22-1.48-0.34c-1.04-0.24-2.08-0.48-3.12-0.75l-0.1-0.03l-4.42-1.18c-2.15-0.54-4.23-1.13-6.25-1.71    c-0.97-0.28-1.93-0.55-2.9-0.82l-0.13-0.04c-2.01-0.59-3.98-1.22-5.88-1.83c-1.06-0.34-2.12-0.68-3.19-1.01l-2.56-0.78    c-2.42-0.74-4.71-1.44-7.02-2.08l-4.9-1.31c-1.6-0.44-3.1-0.81-4.54-1.12l-5-1.09c-1.02-0.21-2.04-0.4-3.06-0.58    c-0.6-0.11-1.21-0.22-1.81-0.34c-2.99-0.58-6.12-1.09-9.64-1.55c-6.15-0.76-12.84-1.5-19.48-1.67l-0.2-0.01    c-3.06-0.14-6.14-0.16-9.83-0.16c-0.95,0.01-1.98,0.05-3,0.09c-0.62,0.02-1.24,0.05-1.85,0.06c-1.72,0.05-3.26,0.12-4.72,0.22    c-13.23,0.81-26.09,2.95-38.31,6.37c-6.76,1.94-12.64,3.99-17.93,6.27c-2.55,1.11-5.59,2.47-8.5,3.94l-0.36,0.2    c-0.17,0.09-0.33,0.18-0.49,0.27c0,1.36,0.02,2.71,0.06,4.06c0.01,0.44,0.03,0.87,0.05,1.3c0.04,0.94,0.08,1.88,0.13,2.81    c0.03,0.49,0.06,0.99,0.09,1.48c0.06,0.9,0.13,1.79,0.21,2.68c0.04,0.47,0.08,0.95,0.13,1.42c0.1,1,0.21,2,0.32,3    c0.04,0.34,0.07,0.69,0.12,1.03c0.17,1.33,0.35,2.65,0.55,3.97c0.04,0.29,0.1,0.58,0.14,0.87c0.01,0.09,0.03,0.17,0.04,0.26    c4.9-1.86,10.13-3.59,15.84-5.23l0.15-0.04c14.57-4.08,29.85-6.63,45.41-7.59c1.92-0.13,3.91-0.23,6.07-0.29    c0.5-0.01,1.02-0.03,1.55-0.05c1.36-0.05,2.72-0.1,4.08-0.11l0.2,0c3.51,0,7.32,0.02,11.18,0.19c8.07,0.21,15.7,1.05,22.75,1.93    l0.21,0.03c4.18,0.55,7.98,1.17,11.59,1.87l1.56,0.29c1.29,0.24,2.59,0.48,3.88,0.74l0.26,0.06l5.04,1.1    c2,0.43,4.11,0.95,6.23,1.53l5.1,1.36c2.75,0.76,5.35,1.56,7.88,2.33l2.78,0.84c1.17,0.36,2.33,0.74,3.5,1.11    c1.7,0.55,3.31,1.06,4.82,1.51c1.01,0.28,2.01,0.57,3.02,0.85c1.83,0.52,3.56,1.02,5.13,1.41l0.44,0.11l4.36,1.16    c0.74,0.19,1.48,0.36,2.22,0.53c0.6,0.14,1.21,0.28,1.81,0.42l0.23,0.06c1.35,0.33,2.89,0.66,4.52,1    c1.27,0.27,2.55,0.54,3.82,0.82c10.97,2.24,22.38,3.87,33.9,4.85c11.2,0.99,22.64,1.27,35.07,0.89c6.26-0.18,12.56-0.65,17.91-1.1    c1.79-0.16,3.55-0.35,5.29-0.55c0.01-0.04,0.02-0.07,0.03-0.11c0.31-1.22,0.6-2.45,0.87-3.68c0.07-0.32,0.14-0.63,0.21-0.95    c0.22-1.02,0.43-2.04,0.63-3.07c0.07-0.36,0.14-0.72,0.21-1.08c0.2-1.08,0.39-2.16,0.56-3.24c0.04-0.27,0.09-0.54,0.13-0.81    c0.21-1.37,0.41-2.74,0.58-4.12c0.02-0.14,0.03-0.27,0.05-0.41c0.15-1.21,0.28-2.42,0.4-3.63c0.04-0.42,0.08-0.85,0.11-1.27    c0.08-0.95,0.16-1.9,0.22-2.85c0.03-0.47,0.06-0.95,0.09-1.42c0.01-0.2,0.02-0.41,0.03-0.61c-2.11,0.25-4.25,0.48-6.42,0.67    C560.84,314.11,553.92,314.63,546.86,314.83z"/>
	</g>
	<path class="st6" d="M429.31,363.16c0.68,0.22,1.37,0.43,2.05,0.65c31.58,10.33,60.32,13.25,84.21,12.76   c-15.44-22.18-21.8-47.93-28.35-78.27C472.58,322.13,454.44,343.7,429.31,363.16z"/>
	<linearGradient id="SVGID_12_" gradientUnits="userSpaceOnUse" x1="269.637" y1="358.8552" x2="593.0879" y2="358.8552">
		<stop offset="0.3631" style="stop-color:#689C39"/>
		<stop offset="0.4924" style="stop-color:#78A934"/>
		<stop offset="0.6672" style="stop-color:#88B62B"/>
		<stop offset="0.8383" style="stop-color:#92BE23"/>
		<stop offset="1" style="stop-color:#95C11F"/>
	</linearGradient>
	<path class="st26" d="M276.84,363.13c2.8-1.97,5.76-3.55,8.74-5.17c3.01-1.53,6.08-2.92,9.19-4.27c6.22-2.68,12.66-4.84,19.19-6.72   c13.09-3.66,26.64-5.88,40.31-6.72c1.71-0.12,3.42-0.2,5.13-0.24c1.71-0.05,3.43-0.14,5.14-0.15c3.43,0,6.86,0.02,10.29,0.17   c6.87,0.17,13.72,0.9,20.54,1.75c3.41,0.45,6.81,0.98,10.19,1.64c1.69,0.32,3.39,0.61,5.07,0.96l5.04,1.1   c1.68,0.36,3.35,0.78,5.01,1.23l4.98,1.33c3.31,0.92,6.59,1.95,9.88,2.94c2.97,0.92,5.91,1.92,8.89,2.79   c2.99,0.83,5.97,1.74,8.98,2.48l4.5,1.2c1.5,0.38,3.02,0.71,4.53,1.08c3.02,0.75,6.07,1.31,9.11,2c12.19,2.5,24.55,4.26,37.06,5.32   c12.51,1.1,25.16,1.36,37.94,0.97c6.4-0.18,12.8-0.64,19.27-1.17c3.23-0.28,6.47-0.64,9.7-1.09c3.26-0.36,6.5-0.9,9.74-1.44   l0.21-0.03c0.4-0.07,0.78,0.2,0.85,0.6c0.06,0.35-0.14,0.68-0.46,0.81c-24.58,9.71-51.08,13.39-77.35,13.35   c-6.58-0.04-13.16-0.3-19.71-0.89c-3.28-0.23-6.55-0.65-9.82-1.01c-1.64-0.18-3.26-0.45-4.89-0.67c-1.63-0.24-3.26-0.44-4.88-0.74   c-12.98-2.15-25.81-5.27-38.34-9.3c-12.37-4.06-25.03-7.22-37.86-9.43c-1.6-0.31-3.21-0.51-4.82-0.76   c-1.61-0.23-3.22-0.51-4.83-0.7c-3.23-0.38-6.46-0.81-9.71-1.06c-6.48-0.62-12.99-0.92-19.5-1c-13.02-0.18-26.06,0.76-38.94,2.73   c-6.44,0.96-12.84,2.2-19.17,3.74c-6.31,1.57-12.62,3.37-18.62,5.76c-0.38,0.15-0.82-0.03-0.97-0.42   c-0.13-0.33-0.01-0.69,0.26-0.89L276.84,363.13z"/>
	<linearGradient id="SVGID_13_" gradientUnits="userSpaceOnUse" x1="464.453" y1="317.8972" x2="536.7045" y2="317.8972">
		<stop offset="0" style="stop-color:#95C11F"/>
		<stop offset="0.1928" style="stop-color:#92BE23"/>
		<stop offset="0.397" style="stop-color:#88B62B"/>
		<stop offset="0.6056" style="stop-color:#78A934"/>
		<stop offset="0.7598" style="stop-color:#689C39"/>
	</linearGradient>
	<path class="st27" d="M472.68,240.86c1.16,1.48,2.13,3.03,3.21,4.55c1.01,1.54,1.96,3.09,2.88,4.67c1.87,3.13,3.52,6.33,5.13,9.55   c3.17,6.45,5.85,13.05,8.27,19.66c4.78,13.25,8.37,26.6,11.65,39.56c3.32,12.98,6.34,25.52,10.39,37.73   c1.99,6.14,4.25,12.22,6.83,18.41c1.27,3.11,2.7,6.2,4.13,9.39c0.75,1.57,1.51,3.16,2.25,4.81c0.74,1.65,1.59,3.22,2.3,4.97   l0.12,0.29c0.15,0.37-0.02,0.79-0.39,0.94c-0.27,0.11-0.56,0.05-0.76-0.13c-5.16-4.71-9.91-9.88-14.17-15.45   c-4.2-5.61-7.87-11.62-11.04-17.86c-6.37-12.5-10.65-25.91-14.19-39.37c-3.37-13.53-6.02-27.17-8.88-40.74   c-1.42-6.79-2.88-13.57-4.43-20.32c-1.48-6.77-3.05-13.52-4.75-20.24c-0.1-0.39,0.14-0.78,0.52-0.88c0.29-0.07,0.57,0.04,0.75,0.25   L472.68,240.86z"/>
	<linearGradient id="SVGID_14_" gradientUnits="userSpaceOnUse" x1="389.4037" y1="310.6695" x2="518.8213" y2="310.6695">
		<stop offset="0" style="stop-color:#95C11F"/>
		<stop offset="0.2226" style="stop-color:#92BE23"/>
		<stop offset="0.4583" style="stop-color:#88B62B"/>
		<stop offset="0.6991" style="stop-color:#78A934"/>
		<stop offset="0.8771" style="stop-color:#689C39"/>
	</linearGradient>
	<path class="st28" d="M512.01,246.86c-0.34,7.87-1.59,15.39-3.14,22.86c-0.84,3.72-1.79,7.42-2.82,11.09   c-0.52,1.85-1.15,3.65-1.75,5.48c-0.62,1.82-1.18,3.66-1.88,5.45c-2.76,7.22-6.04,14.33-10.08,21.16   c-0.99,1.72-2.07,3.38-3.12,5.07c-1.06,1.68-2.28,3.28-3.41,4.92c-1.19,1.6-2.36,3.23-3.62,4.78l-3.89,4.58   c-2.6,3.05-5.52,5.79-8.38,8.58c-0.73,0.68-1.45,1.37-2.19,2.03l-2.29,1.9c-1.53,1.27-3.04,2.54-4.61,3.75   c-1.53,1.26-3.17,2.35-4.78,3.48c-1.6,1.14-3.26,2.19-4.89,3.27c-3.24,2.2-6.73,3.94-10.11,5.84c-0.85,0.47-1.7,0.93-2.56,1.37   l-2.63,1.21c-1.75,0.81-3.5,1.61-5.28,2.35l-2.65,1.13c-0.88,0.38-1.76,0.77-2.68,1.06c-1.82,0.63-3.62,1.29-5.45,1.89   c-3.66,1.19-7.29,2.38-11.09,3.19c-3.75,0.9-7.57,1.62-11.46,2.14l-0.23,0.03c-0.4,0.05-0.77-0.23-0.82-0.63   c-0.04-0.31,0.11-0.59,0.37-0.74c6.41-3.62,12.91-7.07,19.13-10.99l4.74-2.81c1.59-0.93,3.09-1.98,4.64-2.96l4.62-3l2.31-1.5   l2.23-1.61c12.03-8.38,23.26-17.92,32.85-28.94c9.76-10.87,17.82-23.19,24.69-36.15c1.69-3.26,3.34-6.54,4.99-9.82l4.71-9.98   l4.64-10.02l4.54-10.08c0.16-0.37,0.6-0.53,0.96-0.36c0.28,0.13,0.44,0.4,0.43,0.69L512.01,246.86z"/>
</g>
<g id="Calque_3_-_copie_3">
	<g>
		<path class="st2" d="M312.58,237.16c13.28-3.72,27.19-6.04,41.38-6.9c1.63-0.11,3.38-0.2,5.3-0.25c0.57-0.02,1.15-0.04,1.73-0.06    c1.17-0.04,2.34-0.09,3.5-0.1c3.4,0,6.97,0.02,10.51,0.18c7.27,0.18,14.38,0.97,20.98,1.79c3.86,0.51,7.29,1.06,10.53,1.69    c0.55,0.1,1.13,0.21,1.7,0.32c1.14,0.21,2.29,0.42,3.42,0.65l5.1,1.11c1.7,0.37,3.48,0.81,5.28,1.3l4.94,1.32    c2.54,0.7,5.03,1.46,7.44,2.2l2.6,0.79c1.15,0.36,2.25,0.71,3.35,1.07c1.81,0.58,3.68,1.18,5.5,1.71    c0.95,0.26,1.96,0.55,2.97,0.84c2,0.57,3.89,1.12,5.82,1.59l4.59,1.23c0.87,0.22,1.8,0.44,2.72,0.65    c0.56,0.13,1.12,0.26,1.68,0.39c1.76,0.44,3.47,0.8,5.29,1.18c1.24,0.26,2.47,0.52,3.71,0.8c11.8,2.42,24.06,4.18,36.42,5.22    c11.92,1.05,24.14,1.36,37.37,0.96c6.33-0.18,12.63-0.64,18.07-1.08c-20.09-54.02-72.11-92.51-133.13-92.51    c-54.62,0-102.03,30.85-125.78,76.07C307.82,238.57,310.15,237.86,312.58,237.16z"/>
		<path class="st2" d="M546.71,266.83c-3.82,0.12-7.55,0.18-11.23,0.18c-9.43,0-18.44-0.39-27.29-1.16    c-12.76-1.08-25.42-2.9-37.62-5.4l-0.1-0.02c-1.2-0.27-2.4-0.52-3.59-0.77c-1.83-0.38-3.72-0.78-5.61-1.25    c-0.49-0.12-1.03-0.24-1.56-0.36c-1-0.23-2-0.46-3-0.72l-4.56-1.22c-2.01-0.5-4.08-1.09-6.07-1.66c-0.98-0.28-1.96-0.56-2.95-0.83    c-2.02-0.59-3.95-1.21-5.82-1.81c-1.08-0.34-2.15-0.69-3.23-1.02l-2.59-0.79c-2.34-0.72-4.77-1.46-7.14-2.11l-4.94-1.32    c-1.65-0.46-3.25-0.85-4.77-1.18l-5.05-1.1c-1.01-0.21-2.08-0.4-3.15-0.6c-0.6-0.11-1.19-0.22-1.79-0.33    c-3.06-0.6-6.3-1.12-9.91-1.6c-6.32-0.78-13.15-1.54-20.01-1.71l-0.1,0c-3.17-0.14-6.32-0.17-10.06-0.17    c-1.03,0.01-2.11,0.05-3.18,0.09c-0.61,0.02-1.22,0.05-1.82,0.06c-1.78,0.05-3.39,0.13-4.93,0.23    c-13.53,0.82-26.74,3.02-39.31,6.54c-5.78,1.66-10.93,3.4-15.64,5.29c-3.88,9.61-6.74,19.74-8.45,30.26    c6-2.56,12.53-4.84,19.99-6.98c13.64-3.82,27.91-6.2,42.46-7.09c1.66-0.12,3.47-0.2,5.46-0.26c0.55-0.02,1.11-0.04,1.68-0.06    c1.22-0.05,2.44-0.09,3.66-0.1c3.99-0.01,7.32,0.03,10.73,0.18c7.47,0.19,14.71,0.99,21.42,1.82c4,0.53,7.53,1.1,10.87,1.75    c0.52,0.1,1.08,0.2,1.64,0.31c1.18,0.22,2.36,0.43,3.54,0.68l0.1,0.02l5.04,1.1c1.79,0.39,3.66,0.85,5.54,1.37l4.91,1.31    c2.65,0.73,5.17,1.5,7.61,2.25l2.58,0.78c1.21,0.38,2.33,0.73,3.45,1.09c1.83,0.59,3.57,1.15,5.3,1.65c1,0.28,2,0.56,3,0.85    c1.96,0.56,3.81,1.09,5.65,1.55l0.17,0.05l4.45,1.19c0.87,0.22,1.74,0.42,2.61,0.62c0.57,0.13,1.14,0.26,1.72,0.4    c1.71,0.42,3.38,0.78,5.15,1.15c1.25,0.26,2.5,0.52,3.74,0.8c11.59,2.38,23.63,4.1,35.79,5.13c11.74,1.03,23.77,1.34,36.79,0.94    c6.61-0.19,13.18-0.68,18.75-1.15c2.63-0.23,5.24-0.52,7.79-0.85c-0.81-9.41-2.54-18.55-5.1-27.34c-0.48,0.05-0.95,0.1-1.43,0.14    C560.48,266.12,553.64,266.63,546.71,266.83z"/>
		<path class="st2" d="M546.86,314.83c-3.86,0.12-7.65,0.18-11.37,0.18c-9.57,0-18.73-0.39-27.73-1.18    c-12.94-1.09-25.8-2.94-38.19-5.48l-0.21-0.04c-1.17-0.27-2.34-0.51-3.51-0.76c-1.87-0.39-3.81-0.8-5.79-1.29    c-0.43-0.1-0.96-0.22-1.48-0.34c-1.04-0.24-2.08-0.48-3.12-0.75l-0.1-0.03l-4.42-1.18c-2.15-0.54-4.23-1.13-6.25-1.71    c-0.97-0.28-1.93-0.55-2.9-0.82l-0.13-0.04c-2.01-0.59-3.98-1.22-5.88-1.83c-1.06-0.34-2.12-0.68-3.19-1.01l-2.56-0.78    c-2.42-0.74-4.71-1.44-7.02-2.08l-4.9-1.31c-1.6-0.44-3.1-0.81-4.54-1.12l-5-1.09c-1.02-0.21-2.04-0.4-3.06-0.58    c-0.6-0.11-1.21-0.22-1.81-0.34c-2.99-0.58-6.12-1.09-9.64-1.55c-6.15-0.76-12.84-1.5-19.48-1.67l-0.2-0.01    c-3.06-0.14-6.14-0.16-9.83-0.16c-0.95,0.01-1.98,0.05-3,0.09c-0.62,0.02-1.24,0.05-1.85,0.06c-1.72,0.05-3.26,0.12-4.72,0.22    c-13.23,0.81-26.09,2.95-38.31,6.37c-6.76,1.94-12.64,3.99-17.93,6.27c-2.55,1.11-5.59,2.47-8.5,3.94l-0.36,0.2    c-0.17,0.09-0.33,0.18-0.49,0.27c0,1.36,0.02,2.71,0.06,4.06c0.01,0.44,0.03,0.87,0.05,1.3c0.04,0.94,0.08,1.88,0.13,2.81    c0.03,0.49,0.06,0.99,0.09,1.48c0.06,0.9,0.13,1.79,0.21,2.68c0.04,0.47,0.08,0.95,0.13,1.42c0.1,1,0.21,2,0.32,3    c0.04,0.34,0.07,0.69,0.12,1.03c0.17,1.33,0.35,2.65,0.55,3.97c0.04,0.29,0.1,0.58,0.14,0.87c0.01,0.09,0.03,0.17,0.04,0.26    c4.9-1.86,10.13-3.59,15.84-5.23l0.15-0.04c14.57-4.08,29.85-6.63,45.41-7.59c1.92-0.13,3.91-0.23,6.07-0.29    c0.5-0.01,1.02-0.03,1.55-0.05c1.36-0.05,2.72-0.1,4.08-0.11l0.2,0c3.51,0,7.32,0.02,11.18,0.19c8.07,0.21,15.7,1.05,22.75,1.93    l0.21,0.03c4.18,0.55,7.98,1.17,11.59,1.87l1.56,0.29c1.29,0.24,2.59,0.48,3.88,0.74l0.26,0.06l5.04,1.1    c2,0.43,4.11,0.95,6.23,1.53l5.1,1.36c2.75,0.76,5.35,1.56,7.88,2.33l2.78,0.84c1.17,0.36,2.33,0.74,3.5,1.11    c1.7,0.55,3.31,1.06,4.82,1.51c1.01,0.28,2.01,0.57,3.02,0.85c1.83,0.52,3.56,1.02,5.13,1.41l0.44,0.11l4.36,1.16    c0.74,0.19,1.48,0.36,2.22,0.53c0.6,0.14,1.21,0.28,1.81,0.42l0.23,0.06c1.35,0.33,2.89,0.66,4.52,1    c1.27,0.27,2.55,0.54,3.82,0.82c10.97,2.24,22.38,3.87,33.9,4.85c11.2,0.99,22.64,1.27,35.07,0.89c6.26-0.18,12.56-0.65,17.91-1.1    c1.79-0.16,3.55-0.35,5.29-0.55c0.01-0.04,0.02-0.07,0.03-0.11c0.31-1.22,0.6-2.45,0.87-3.68c0.07-0.32,0.14-0.63,0.21-0.95    c0.22-1.02,0.43-2.04,0.63-3.07c0.07-0.36,0.14-0.72,0.21-1.08c0.2-1.08,0.39-2.16,0.56-3.24c0.04-0.27,0.09-0.54,0.13-0.81    c0.21-1.37,0.41-2.74,0.58-4.12c0.02-0.14,0.03-0.27,0.05-0.41c0.15-1.21,0.28-2.42,0.4-3.63c0.04-0.42,0.08-0.85,0.11-1.27    c0.08-0.95,0.16-1.9,0.22-2.85c0.03-0.47,0.06-0.95,0.09-1.42c0.01-0.2,0.02-0.41,0.03-0.61c-2.11,0.25-4.25,0.48-6.42,0.67    C560.84,314.11,553.92,314.63,546.86,314.83z"/>
	</g>
	<path class="st6" d="M429.31,363.16c0.68,0.22,1.37,0.43,2.05,0.65c31.58,10.33,60.32,13.25,84.21,12.76   c-15.44-22.18-21.8-47.93-28.35-78.27C472.58,322.13,454.44,343.7,429.31,363.16z"/>
	<path class="st5" d="M276.84,363.13c2.8-1.97,5.76-3.55,8.74-5.17c3.01-1.53,6.08-2.92,9.19-4.27c6.22-2.68,12.66-4.84,19.19-6.72   c13.09-3.66,26.64-5.88,40.31-6.72c1.71-0.12,3.42-0.2,5.13-0.24c1.71-0.05,3.43-0.14,5.14-0.15c3.43,0,6.86,0.02,10.29,0.17   c6.87,0.17,13.72,0.9,20.54,1.75c3.41,0.45,6.81,0.98,10.19,1.64c1.69,0.32,3.39,0.61,5.07,0.96l5.04,1.1   c1.68,0.36,3.35,0.78,5.01,1.23l4.98,1.33c3.31,0.92,6.59,1.95,9.88,2.94c2.97,0.92,5.91,1.92,8.89,2.79   c2.99,0.83,5.97,1.74,8.98,2.48l4.5,1.2c1.5,0.38,3.02,0.71,4.53,1.08c3.02,0.75,6.07,1.31,9.11,2c12.19,2.5,24.55,4.26,37.06,5.32   c12.51,1.1,25.16,1.36,37.94,0.97c6.4-0.18,12.8-0.64,19.27-1.17c3.23-0.28,6.47-0.64,9.7-1.09c3.26-0.36,6.5-0.9,9.74-1.44   l0.21-0.03c0.4-0.07,0.78,0.2,0.85,0.6c0.06,0.35-0.14,0.68-0.46,0.81c-24.58,9.71-51.08,13.39-77.35,13.35   c-6.58-0.04-13.16-0.3-19.71-0.89c-3.28-0.23-6.55-0.65-9.82-1.01c-1.64-0.18-3.26-0.45-4.89-0.67c-1.63-0.24-3.26-0.44-4.88-0.74   c-12.98-2.15-25.81-5.27-38.34-9.3c-12.37-4.06-25.03-7.22-37.86-9.43c-1.6-0.31-3.21-0.51-4.82-0.76   c-1.61-0.23-3.22-0.51-4.83-0.7c-3.23-0.38-6.46-0.81-9.71-1.06c-6.48-0.62-12.99-0.92-19.5-1c-13.02-0.18-26.06,0.76-38.94,2.73   c-6.44,0.96-12.84,2.2-19.17,3.74c-6.31,1.57-12.62,3.37-18.62,5.76c-0.38,0.15-0.82-0.03-0.97-0.42   c-0.13-0.33-0.01-0.69,0.26-0.89L276.84,363.13z"/>
	<path class="st5" d="M472.68,240.86c1.16,1.48,2.13,3.03,3.21,4.55c1.01,1.54,1.96,3.09,2.88,4.67c1.87,3.13,3.52,6.33,5.13,9.55   c3.17,6.45,5.85,13.05,8.27,19.66c4.78,13.25,8.37,26.6,11.65,39.56c3.32,12.98,6.34,25.52,10.39,37.73   c1.99,6.14,4.25,12.22,6.83,18.41c1.27,3.11,2.7,6.2,4.13,9.39c0.75,1.57,1.51,3.16,2.25,4.81c0.74,1.65,1.59,3.22,2.3,4.97   l0.12,0.29c0.15,0.37-0.02,0.79-0.39,0.94c-0.27,0.11-0.56,0.05-0.76-0.13c-5.16-4.71-9.91-9.88-14.17-15.45   c-4.2-5.61-7.87-11.62-11.04-17.86c-6.37-12.5-10.65-25.91-14.19-39.37c-3.37-13.53-6.02-27.17-8.88-40.74   c-1.42-6.79-2.88-13.57-4.43-20.32c-1.48-6.77-3.05-13.52-4.75-20.24c-0.1-0.39,0.14-0.78,0.52-0.88c0.29-0.07,0.57,0.04,0.75,0.25   L472.68,240.86z"/>
	<path class="st5" d="M512.01,246.86c-0.34,7.87-1.59,15.39-3.14,22.86c-0.84,3.72-1.79,7.42-2.82,11.09   c-0.52,1.85-1.15,3.65-1.75,5.48c-0.62,1.82-1.18,3.66-1.88,5.45c-2.76,7.22-6.04,14.33-10.08,21.16   c-0.99,1.72-2.07,3.38-3.12,5.07c-1.06,1.68-2.28,3.28-3.41,4.92c-1.19,1.6-2.36,3.23-3.62,4.78l-3.89,4.58   c-2.6,3.05-5.52,5.79-8.38,8.58c-0.73,0.68-1.45,1.37-2.19,2.03l-2.29,1.9c-1.53,1.27-3.04,2.54-4.61,3.75   c-1.53,1.26-3.17,2.35-4.78,3.48c-1.6,1.14-3.26,2.19-4.89,3.27c-3.24,2.2-6.73,3.94-10.11,5.84c-0.85,0.47-1.7,0.93-2.56,1.37   l-2.63,1.21c-1.75,0.81-3.5,1.61-5.28,2.35l-2.65,1.13c-0.88,0.38-1.76,0.77-2.68,1.06c-1.82,0.63-3.62,1.29-5.45,1.89   c-3.66,1.19-7.29,2.38-11.09,3.19c-3.75,0.9-7.57,1.62-11.46,2.14l-0.23,0.03c-0.4,0.05-0.77-0.23-0.82-0.63   c-0.04-0.31,0.11-0.59,0.37-0.74c6.41-3.62,12.91-7.07,19.13-10.99l4.74-2.81c1.59-0.93,3.09-1.98,4.64-2.96l4.62-3l2.31-1.5   l2.23-1.61c12.03-8.38,23.26-17.92,32.85-28.94c9.76-10.87,17.82-23.19,24.69-36.15c1.69-3.26,3.34-6.54,4.99-9.82l4.71-9.98   l4.64-10.02l4.54-10.08c0.16-0.37,0.6-0.53,0.96-0.36c0.28,0.13,0.44,0.4,0.43,0.69L512.01,246.86z"/>
</g>
</svg>