<?xml version="1.0" encoding="utf-8"?>
<!-- Generator: Adobe Illustrator 25.0.0, SVG Export Plug-In . SVG Version: 6.00 Build 0)  -->
<svg version="1.1" xmlns="http://www.w3.org/2000/svg" xmlns:xlink="http://www.w3.org/1999/xlink" x="0px" y="0px"
	 viewBox="0 0 1003.62 671.05" style="enable-background:new 0 0 1003.62 671.05;" xml:space="preserve">
<style type="text/css">
	.st0{display:none;}
	.st1{display:inline;}
	.st2{fill:#F7D844;}
	.st3{fill:#EDA641;}
	.st4{fill:#689C39;}
	.st5{fill:#95C11F;}
	.st6{fill:#006633;}
	.st7{font-family:'MyriadPro-Regular';}
	.st8{font-size:12px;}
	.st9{display:inline;fill:url(#SVGID_1_);}
	.st10{clip-path:url(#SVGID_3_);}
	.st11{fill:url(#SVGID_4_);}
	.st12{display:inline;fill:none;stroke:#FFFFFF;stroke-width:50;stroke-miterlimit:10;}
	.st13{display:inline;fill:none;stroke:#FFFFFF;stroke-width:50;stroke-linecap:round;stroke-miterlimit:10;}
	.st14{display:inline;fill:none;stroke:#FFFFFF;stroke-width:20;stroke-linecap:round;stroke-miterlimit:10;}
	.st15{display:inline;fill:none;stroke:#FFFFFF;stroke-width:10;stroke-miterlimit:10;}
	.st16{display:inline;fill:#006633;}
	.st17{fill:url(#SVGID_5_);}
	.st18{fill:url(#SVGID_6_);}
	.st19{fill:url(#SVGID_7_);}
	.st20{font-family:'GreekFreakRegular';}
	.st21{font-size:60.5602px;}
	.st22{fill:url(#SVGID_8_);}
	.st23{fill:url(#SVGID_9_);}
	.st24{fill:url(#SVGID_10_);}
	.st25{fill:url(#SVGID_11_);}
	.st26{display:inline;fill:url(#SVGID_12_);}
	.st27{display:inline;fill:url(#SVGID_13_);}
	.st28{display:inline;fill:url(#SVGID_14_);}
	.st29{clip-path:url(#SVGID_16_);fill:#689C39;}
	.st30{clip-path:url(#SVGID_16_);fill:#699D39;}
	.st31{clip-path:url(#SVGID_16_);fill:#6B9E38;}
	.st32{clip-path:url(#SVGID_16_);fill:#6C9F38;}
	.st33{clip-path:url(#SVGID_16_);fill:#6DA037;}
	.st34{clip-path:url(#SVGID_16_);fill:#6FA237;}
	.st35{clip-path:url(#SVGID_16_);fill:#70A336;}
	.st36{clip-path:url(#SVGID_16_);fill:#72A436;}
	.st37{clip-path:url(#SVGID_16_);fill:#73A535;}
	.st38{clip-path:url(#SVGID_16_);fill:#74A635;}
	.st39{clip-path:url(#SVGID_16_);fill:#75A734;}
	.st40{clip-path:url(#SVGID_16_);fill:#77A834;}
	.st41{clip-path:url(#SVGID_16_);fill:#78A933;}
	.st42{clip-path:url(#SVGID_16_);fill:#79AA33;}
	.st43{clip-path:url(#SVGID_16_);fill:#7AAB32;}
	.st44{clip-path:url(#SVGID_16_);fill:#7BAC32;}
	.st45{clip-path:url(#SVGID_16_);fill:#7CAD31;}
	.st46{clip-path:url(#SVGID_16_);fill:#7EAE31;}
	.st47{clip-path:url(#SVGID_16_);fill:#7FAF30;}
	.st48{clip-path:url(#SVGID_16_);fill:#80AF30;}
	.st49{clip-path:url(#SVGID_16_);fill:#81B02F;}
	.st50{clip-path:url(#SVGID_16_);fill:#82B12F;}
	.st51{clip-path:url(#SVGID_16_);fill:#83B22E;}
	.st52{clip-path:url(#SVGID_16_);fill:#84B32D;}
	.st53{clip-path:url(#SVGID_16_);fill:#85B42D;}
	.st54{clip-path:url(#SVGID_16_);fill:#86B42C;}
	.st55{clip-path:url(#SVGID_16_);fill:#86B52C;}
	.st56{clip-path:url(#SVGID_16_);fill:#87B62B;}
	.st57{clip-path:url(#SVGID_16_);fill:#88B62B;}
	.st58{clip-path:url(#SVGID_16_);fill:#89B72A;}
	.st59{clip-path:url(#SVGID_16_);fill:#8AB82A;}
	.st60{clip-path:url(#SVGID_16_);fill:#8AB829;}
	.st61{clip-path:url(#SVGID_16_);fill:#8BB928;}
	.st62{clip-path:url(#SVGID_16_);fill:#8CBA28;}
	.st63{clip-path:url(#SVGID_16_);fill:#8DBA27;}
	.st64{clip-path:url(#SVGID_16_);fill:#8DBB27;}
	.st65{clip-path:url(#SVGID_16_);fill:#8EBB26;}
	.st66{clip-path:url(#SVGID_16_);fill:#8FBC26;}
	.st67{clip-path:url(#SVGID_16_);fill:#8FBC25;}
	.st68{clip-path:url(#SVGID_16_);fill:#90BD25;}
	.st69{clip-path:url(#SVGID_16_);fill:#90BD24;}
	.st70{clip-path:url(#SVGID_16_);fill:#91BE24;}
	.st71{clip-path:url(#SVGID_16_);fill:#91BE23;}
	.st72{clip-path:url(#SVGID_16_);fill:#92BE23;}
	.st73{clip-path:url(#SVGID_16_);fill:#92BF22;}
	.st74{clip-path:url(#SVGID_16_);fill:#93BF21;}
	.st75{clip-path:url(#SVGID_16_);fill:#93C021;}
	.st76{clip-path:url(#SVGID_16_);fill:#94C020;}
	.st77{clip-path:url(#SVGID_16_);fill:#94C11F;}
	.st78{clip-path:url(#SVGID_16_);fill:#95C11F;}
	.st79{clip-path:url(#SVGID_18_);fill:#95C11F;}
</style>
<g id="Calque_3_-_copie_2" class="st0">
	<g id="Calque_5_-_copie" class="st1">
		<g>
			<g>
				
					<rect x="403.42" y="234.57" transform="matrix(0.9686 -0.2485 0.2485 0.9686 -40.669 147.972)" class="st2" width="324.71" height="1"/>
			</g>
		</g>
		<g>
			<g>
				
					<rect x="643.25" y="269.27" transform="matrix(0.7869 -0.617 0.617 0.7869 -20.1565 481.1668)" class="st3" width="86.77" height="1"/>
			</g>
		</g>
		<g>
			<g>
				
					<rect x="358.41" y="443.39" transform="matrix(0.8596 -0.5109 0.5109 0.8596 -148.2764 348.0648)" class="st4" width="401.84" height="1"/>
			</g>
		</g>
		<g>
			<g>
				
					<rect x="641" y="511.57" transform="matrix(0.7533 -0.6577 0.6577 0.7533 -163.0669 589.4262)" class="st5" width="126.28" height="1"/>
			</g>
		</g>
		<g>
			<g>
				<rect x="576.98" y="394.1" class="st6" width="155.1" height="1"/>
			</g>
		</g>
		<g>
			<g>
				
					<rect x="423.72" y="419.97" transform="matrix(0.9751 -0.2218 0.2218 0.9751 -79.7918 130.3664)" class="st6" width="233.72" height="1"/>
			</g>
		</g>
		<g>
			<g>
				
					<rect x="645.83" y="296.23" transform="matrix(0.3925 -0.9197 0.9197 0.3925 137.2239 801.2255)" class="st3" width="58.63" height="1"/>
			</g>
		</g>
		<g>
			<g>
				
					<rect x="619.78" y="320.75" transform="matrix(0.2558 -0.9667 0.9667 0.2558 190.284 889.6866)" class="st3" width="106.49" height="1"/>
			</g>
		</g>
		<g>
			<g>
				
					<rect x="385.13" y="259.37" transform="matrix(0.9369 -0.3497 0.3497 0.9369 -57.3159 202.3201)" class="st2" width="292.9" height="1"/>
			</g>
		</g>
		<g>
			<g>
				
					<rect x="368.77" y="284.61" transform="matrix(0.8783 -0.4782 0.4782 0.8783 -71.9914 287.4254)" class="st2" width="319.49" height="1"/>
			</g>
		</g>
		<g>
			<g>
				
					<rect x="675.69" y="402.44" transform="matrix(0.7827 -0.6224 0.6224 0.7827 -139.4009 520.8778)" class="st5" width="1" height="115.24"/>
			</g>
		</g>
		<g>
			<g>
				
					<rect x="610.13" y="346.93" transform="matrix(0.4175 -0.9087 0.9087 0.4175 -60.9944 821.9517)" class="st5" width="1" height="223.25"/>
			</g>
		</g>
		<g>
			<g>
				
					<rect x="642.38" y="279.46" transform="matrix(0.8282 -0.5604 0.5604 0.8282 -115.3609 429.4868)" class="st5" width="1" height="246.9"/>
			</g>
		</g>
		<g>
			<g>
				
					<rect x="668.27" y="256.94" transform="matrix(0.2795 -0.9602 0.9602 0.2795 171.8656 874.7769)" class="st4" width="1" height="131.88"/>
			</g>
		</g>
		<g>
			<g>
				
					<rect x="394.55" y="367.45" transform="matrix(0.9876 -0.1571 0.1571 0.9876 -50.8015 93.2409)" class="st4" width="339.64" height="1"/>
			</g>
		</g>
		<g>
			<g>
				
					<rect x="602.19" y="383.06" transform="matrix(0.8088 -0.5881 0.5881 0.8088 -96.6949 469.6833)" class="st4" width="143.64" height="1"/>
			</g>
		</g>
		<text transform="matrix(1 0 0 1 735.9301 197.5402)" class="st7 st8">F7D844</text>
		<text transform="matrix(1 0 0 1 732.0874 245.871)" class="st7 st8">EDA641</text>
		<text transform="matrix(1 0 0 1 739.9873 341.9739)" class="st7 st8">689C39</text>
		<text transform="matrix(1 0 0 1 740.3955 395.0973)" class="st7 st8">006633</text>
		<text transform="matrix(1 0 0 1 759.2867 470.1588)" class="st7 st8">95C11F</text>
	</g>
</g>
<g id="Calque_3" class="st0">
	<g>
		<linearGradient id="SVGID_1_" gradientUnits="userSpaceOnUse" x1="526.2887" y1="206.9066" x2="526.2887" y2="490.8925">
			<stop  offset="0.6034" style="stop-color:#689C39"/>
			<stop  offset="0.7274" style="stop-color:#6A9E38;stop-opacity:0.6872"/>
			<stop  offset="0.8204" style="stop-color:#71A436;stop-opacity:0.4528"/>
			<stop  offset="0.9033" style="stop-color:#7EAE31;stop-opacity:0.2439"/>
			<stop  offset="0.9798" style="stop-color:#8FBC25;stop-opacity:0.0509"/>
			<stop  offset="1" style="stop-color:#95C11F;stop-opacity:0"/>
		</linearGradient>
		<circle class="st9" cx="526.29" cy="348.9" r="141.99"/>
	</g>
	<g class="st1">
		<defs>
			<path id="SVGID_2_" d="M526.29,407.49c52.86,17.29,97.77,13.84,125.27,8.31c10.67-19.93,16.72-42.71,16.72-66.9
				c0-78.42-63.57-141.99-141.99-141.99S384.3,270.48,384.3,348.9c0,11.95,1.48,23.55,4.25,34.63c1.47,5.88,3.31,11.61,5.49,17.17
				C420.52,394.43,468.68,388.65,526.29,407.49z"/>
		</defs>
		<clipPath id="SVGID_3_">
			<use xlink:href="#SVGID_2_"  style="overflow:visible;"/>
		</clipPath>
		<g class="st10">
			<linearGradient id="SVGID_4_" gradientUnits="userSpaceOnUse" x1="435.0153" y1="240.1241" x2="617.5622" y2="457.675">
				<stop  offset="0" style="stop-color:#F7D844"/>
				<stop  offset="0.2264" style="stop-color:#F6D644"/>
				<stop  offset="0.4661" style="stop-color:#F4CE44"/>
				<stop  offset="0.7119" style="stop-color:#F2BF43"/>
				<stop  offset="0.9605" style="stop-color:#EEAA41"/>
				<stop  offset="1" style="stop-color:#EDA641"/>
			</linearGradient>
			<circle class="st11" cx="526.29" cy="348.9" r="141.99"/>
		</g>
	</g>
	<path class="st12" d="M372.06,407.49c0,0,66.07-28.83,154.23,0s154.23,0,154.23,0"/>
	<path class="st13" d="M371.76,406.8c2.8-1.97,5.76-3.55,8.74-5.17c3.01-1.53,6.08-2.92,9.19-4.27c6.22-2.68,12.66-4.84,19.19-6.72
		c13.09-3.66,26.64-5.88,40.31-6.72c1.71-0.12,3.42-0.2,5.13-0.24c1.71-0.05,3.43-0.14,5.14-0.15c3.43,0,6.86,0.02,10.29,0.17
		c6.87,0.17,13.72,0.9,20.54,1.75c3.41,0.45,6.81,0.98,10.19,1.64c1.69,0.32,3.39,0.61,5.07,0.96l5.04,1.1
		c1.68,0.36,3.35,0.78,5.01,1.23l4.98,1.33c3.31,0.92,6.59,1.95,9.88,2.94c2.97,0.92,5.91,1.92,8.89,2.79
		c2.99,0.83,5.97,1.74,8.98,2.48l4.5,1.2c1.5,0.38,3.02,0.71,4.53,1.08c3.02,0.75,6.07,1.31,9.11,2c12.19,2.5,24.55,4.26,37.06,5.32
		c12.51,1.1,25.16,1.36,37.94,0.97c6.4-0.18,12.8-0.64,19.27-1.17c3.23-0.28,6.47-0.64,9.7-1.09c3.26-0.36,6.5-0.9,9.74-1.44
		l0.21-0.03"/>
	<path class="st14" d="M371.76,344.8c2.8-1.97,5.76-3.55,8.74-5.17c3.01-1.53,6.08-2.92,9.19-4.27c6.22-2.68,12.66-4.84,19.19-6.72
		c13.09-3.66,26.64-5.88,40.31-6.72c1.71-0.12,3.42-0.2,5.13-0.24c1.71-0.05,3.43-0.14,5.14-0.15c3.43,0,6.86,0.02,10.29,0.17
		c6.87,0.17,13.72,0.9,20.54,1.75c3.41,0.45,6.81,0.98,10.19,1.64c1.69,0.32,3.39,0.61,5.07,0.96l5.04,1.1
		c1.68,0.36,3.35,0.78,5.01,1.23l4.98,1.33c3.31,0.92,6.59,1.95,9.88,2.94c2.97,0.92,5.91,1.92,8.89,2.79
		c2.99,0.83,5.97,1.74,8.98,2.48l4.5,1.2c1.5,0.38,3.02,0.71,4.53,1.08c3.02,0.75,6.07,1.31,9.11,2c12.19,2.5,24.55,4.26,37.06,5.32
		c12.51,1.1,25.16,1.36,37.94,0.97c6.4-0.18,12.8-0.64,19.27-1.17c3.23-0.28,6.47-0.64,9.7-1.09c3.26-0.36,6.5-0.9,9.74-1.44
		l0.21-0.03"/>
	<path class="st15" d="M371.76,301.79c2.8-1.97,5.76-3.55,8.74-5.17c3.01-1.53,6.08-2.92,9.19-4.27c6.22-2.68,12.66-4.84,19.19-6.72
		c13.09-3.66,26.64-5.88,40.31-6.72c1.71-0.12,3.42-0.2,5.13-0.24c1.71-0.05,3.43-0.14,5.14-0.15c3.43,0,6.86,0.02,10.29,0.17
		c6.87,0.17,13.72,0.9,20.54,1.75c3.41,0.45,6.81,0.98,10.19,1.64c1.69,0.32,3.39,0.61,5.07,0.96l5.04,1.1
		c1.68,0.36,3.35,0.78,5.01,1.23l4.98,1.33c3.31,0.92,6.59,1.95,9.88,2.94c2.97,0.92,5.91,1.92,8.89,2.79
		c2.99,0.83,5.97,1.74,8.98,2.48l4.5,1.2c1.5,0.38,3.02,0.71,4.53,1.08c3.02,0.75,6.07,1.31,9.11,2c12.19,2.5,24.55,4.26,37.06,5.32
		c12.51,1.1,25.16,1.36,37.94,0.97c6.4-0.18,12.8-0.64,19.27-1.17c3.23-0.28,6.47-0.64,9.7-1.09c3.26-0.36,6.5-0.9,9.74-1.44
		l0.21-0.03"/>
	<path class="st16" d="M524.23,406.83c0.68,0.22,1.37,0.43,2.05,0.65c31.58,10.33,60.32,13.25,84.21,12.76
		c-15.44-22.18-21.8-47.93-28.35-78.27C567.51,365.8,549.36,387.37,524.23,406.83z"/>
	<g class="st1">
		<linearGradient id="SVGID_5_" gradientUnits="userSpaceOnUse" x1="364.5633" y1="402.5237" x2="688.0141" y2="402.5237">
			<stop  offset="0.3631" style="stop-color:#689C39"/>
			<stop  offset="0.4924" style="stop-color:#78A934"/>
			<stop  offset="0.6672" style="stop-color:#88B62B"/>
			<stop  offset="0.8383" style="stop-color:#92BE23"/>
			<stop  offset="1" style="stop-color:#95C11F"/>
		</linearGradient>
		<path class="st17" d="M371.76,406.8c2.8-1.97,5.76-3.55,8.74-5.17c3.01-1.53,6.08-2.92,9.19-4.27c6.22-2.68,12.66-4.84,19.19-6.72
			c13.09-3.66,26.64-5.88,40.31-6.72c1.71-0.12,3.42-0.2,5.13-0.24c1.71-0.05,3.43-0.14,5.14-0.15c3.43,0,6.86,0.02,10.29,0.17
			c6.87,0.17,13.72,0.9,20.54,1.75c3.41,0.45,6.81,0.98,10.19,1.64c1.69,0.32,3.39,0.61,5.07,0.96l5.04,1.1
			c1.68,0.36,3.35,0.78,5.01,1.23l4.98,1.33c3.31,0.92,6.59,1.95,9.88,2.94c2.97,0.92,5.91,1.92,8.89,2.79
			c2.99,0.83,5.97,1.74,8.98,2.48l4.5,1.2c1.5,0.38,3.02,0.71,4.53,1.08c3.02,0.75,6.07,1.31,9.11,2
			c12.19,2.5,24.55,4.26,37.06,5.32c12.51,1.1,25.16,1.36,37.94,0.97c6.4-0.18,12.8-0.64,19.27-1.17c3.23-0.28,6.47-0.64,9.7-1.09
			c3.26-0.36,6.5-0.9,9.74-1.44l0.21-0.03c0.4-0.07,0.78,0.2,0.85,0.6c0.06,0.35-0.14,0.68-0.46,0.81
			c-24.58,9.71-51.08,13.39-77.35,13.35c-6.58-0.04-13.16-0.3-19.71-0.89c-3.28-0.23-6.55-0.65-9.82-1.01
			c-1.64-0.18-3.26-0.45-4.89-0.67c-1.63-0.24-3.26-0.44-4.88-0.74c-12.98-2.15-25.81-5.27-38.34-9.3
			c-12.37-4.06-25.03-7.22-37.86-9.43c-1.6-0.31-3.21-0.51-4.82-0.76c-1.61-0.23-3.22-0.51-4.83-0.7c-3.23-0.38-6.46-0.81-9.71-1.06
			c-6.48-0.62-12.99-0.92-19.5-1c-13.02-0.18-26.06,0.76-38.94,2.73c-6.44,0.96-12.84,2.2-19.17,3.74
			c-6.31,1.57-12.62,3.37-18.62,5.76c-0.38,0.15-0.82-0.03-0.97-0.42c-0.13-0.33-0.01-0.69,0.26-0.89L371.76,406.8z"/>
	</g>
	<g class="st1">
		<linearGradient id="SVGID_6_" gradientUnits="userSpaceOnUse" x1="559.3793" y1="361.5658" x2="631.6307" y2="361.5658">
			<stop  offset="0" style="stop-color:#95C11F"/>
			<stop  offset="0.1928" style="stop-color:#92BE23"/>
			<stop  offset="0.397" style="stop-color:#88B62B"/>
			<stop  offset="0.6056" style="stop-color:#78A934"/>
			<stop  offset="0.7598" style="stop-color:#689C39"/>
		</linearGradient>
		<path class="st18" d="M567.6,284.53c1.16,1.48,2.13,3.03,3.21,4.55c1.01,1.54,1.96,3.09,2.88,4.67c1.87,3.13,3.52,6.33,5.13,9.55
			c3.17,6.45,5.85,13.05,8.27,19.66c4.78,13.25,8.37,26.6,11.65,39.56c3.32,12.98,6.34,25.52,10.39,37.73
			c1.99,6.14,4.25,12.22,6.83,18.41c1.27,3.11,2.7,6.2,4.13,9.39c0.75,1.57,1.51,3.16,2.25,4.81c0.74,1.65,1.59,3.22,2.3,4.97
			l0.12,0.29c0.15,0.37-0.02,0.79-0.39,0.94c-0.27,0.11-0.56,0.05-0.76-0.13c-5.16-4.71-9.91-9.88-14.17-15.45
			c-4.2-5.61-7.87-11.62-11.04-17.86c-6.37-12.5-10.65-25.91-14.19-39.37c-3.37-13.53-6.02-27.17-8.88-40.74
			c-1.42-6.79-2.88-13.57-4.43-20.32c-1.48-6.77-3.05-13.52-4.75-20.24c-0.1-0.39,0.14-0.78,0.52-0.88
			c0.29-0.07,0.57,0.04,0.75,0.25L567.6,284.53z"/>
	</g>
	<g class="st1">
		<linearGradient id="SVGID_7_" gradientUnits="userSpaceOnUse" x1="484.3299" y1="354.338" x2="613.7476" y2="354.338">
			<stop  offset="0" style="stop-color:#95C11F"/>
			<stop  offset="0.2226" style="stop-color:#92BE23"/>
			<stop  offset="0.4583" style="stop-color:#88B62B"/>
			<stop  offset="0.6991" style="stop-color:#78A934"/>
			<stop  offset="0.8771" style="stop-color:#689C39"/>
		</linearGradient>
		<path class="st19" d="M606.94,290.52c-0.34,7.87-1.59,15.39-3.14,22.86c-0.84,3.72-1.79,7.42-2.82,11.09
			c-0.52,1.85-1.15,3.65-1.75,5.48c-0.62,1.82-1.18,3.66-1.88,5.45c-2.76,7.22-6.04,14.33-10.08,21.16
			c-0.99,1.72-2.07,3.38-3.12,5.07c-1.06,1.68-2.28,3.28-3.41,4.92c-1.19,1.6-2.36,3.23-3.62,4.78l-3.89,4.58
			c-2.6,3.05-5.52,5.79-8.38,8.58c-0.73,0.68-1.45,1.37-2.19,2.03l-2.29,1.9c-1.53,1.27-3.04,2.54-4.61,3.75
			c-1.53,1.26-3.17,2.35-4.78,3.48c-1.6,1.14-3.26,2.19-4.89,3.27c-3.24,2.2-6.73,3.94-10.11,5.84c-0.85,0.47-1.7,0.93-2.56,1.37
			l-2.63,1.21c-1.75,0.81-3.5,1.61-5.28,2.35l-2.65,1.13c-0.88,0.38-1.76,0.77-2.68,1.06c-1.82,0.63-3.62,1.29-5.45,1.89
			c-3.66,1.19-7.29,2.38-11.09,3.19c-3.75,0.9-7.57,1.62-11.46,2.14l-0.23,0.03c-0.4,0.05-0.77-0.23-0.82-0.63
			c-0.04-0.31,0.11-0.59,0.37-0.74c6.41-3.62,12.91-7.07,19.13-10.99l4.74-2.81c1.59-0.93,3.09-1.98,4.64-2.96l4.62-3l2.31-1.5
			l2.23-1.61c12.03-8.38,23.26-17.92,32.85-28.94c9.76-10.87,17.82-23.19,24.69-36.15c1.69-3.26,3.34-6.54,4.99-9.82l4.71-9.98
			l4.64-10.02l4.54-10.08c0.16-0.37,0.6-0.53,0.96-0.36c0.28,0.13,0.44,0.4,0.43,0.69L606.94,290.52z"/>
	</g>
	<text transform="matrix(1 0 0 1 356.8947 468.0757)" class="st1"><tspan x="0" y="0" class="st6 st20 st21">Domaine</tspan><tspan x="90.01" y="50.47" class="st6 st20 st21">du Soleil</tspan></text>
	<g class="st1">
		<linearGradient id="SVGID_8_" gradientUnits="userSpaceOnUse" x1="364.5633" y1="546.4747" x2="688.0141" y2="546.4747">
			<stop  offset="0.3631" style="stop-color:#689C39"/>
			<stop  offset="0.4924" style="stop-color:#78A934"/>
			<stop  offset="0.6672" style="stop-color:#88B62B"/>
			<stop  offset="0.8383" style="stop-color:#92BE23"/>
			<stop  offset="1" style="stop-color:#95C11F"/>
		</linearGradient>
		<path class="st22" d="M371.76,550.75c2.8-1.97,5.76-3.55,8.74-5.17c3.01-1.53,6.08-2.92,9.19-4.27
			c6.22-2.68,12.66-4.84,19.19-6.72c13.09-3.66,26.64-5.88,40.31-6.72c1.71-0.12,3.42-0.2,5.13-0.24c1.71-0.05,3.43-0.14,5.14-0.15
			c3.43,0,6.86,0.02,10.29,0.17c6.87,0.17,13.72,0.9,20.54,1.75c3.41,0.45,6.81,0.98,10.19,1.64c1.69,0.32,3.39,0.61,5.07,0.96
			l5.04,1.1c1.68,0.36,3.35,0.78,5.01,1.23l4.98,1.33c3.31,0.92,6.59,1.95,9.88,2.94c2.97,0.92,5.91,1.92,8.89,2.79
			c2.99,0.83,5.97,1.74,8.98,2.48l4.5,1.2c1.5,0.38,3.02,0.71,4.53,1.08c3.02,0.75,6.07,1.31,9.11,2
			c12.19,2.5,24.55,4.26,37.06,5.32c12.51,1.1,25.16,1.36,37.94,0.97c6.4-0.18,12.8-0.64,19.27-1.17c3.23-0.28,6.47-0.64,9.7-1.09
			c3.26-0.36,6.5-0.9,9.74-1.44l0.21-0.03c0.4-0.07,0.78,0.2,0.85,0.6c0.06,0.35-0.14,0.68-0.46,0.81
			c-24.58,9.71-51.08,13.39-77.35,13.35c-6.58-0.04-13.16-0.3-19.71-0.89c-3.28-0.23-6.55-0.65-9.82-1.01
			c-1.64-0.18-3.26-0.45-4.89-0.67c-1.63-0.24-3.26-0.44-4.88-0.74c-12.98-2.15-25.81-5.27-38.34-9.3
			c-12.37-4.06-25.03-7.22-37.86-9.43c-1.6-0.31-3.21-0.51-4.82-0.76c-1.61-0.23-3.22-0.51-4.83-0.7c-3.23-0.38-6.46-0.81-9.71-1.06
			c-6.48-0.62-12.99-0.92-19.5-1c-13.02-0.18-26.06,0.76-38.94,2.73c-6.44,0.96-12.84,2.2-19.17,3.74
			c-6.31,1.57-12.62,3.37-18.62,5.76c-0.38,0.15-0.82-0.03-0.97-0.42c-0.13-0.33-0.01-0.69,0.26-0.89L371.76,550.75z"/>
	</g>
</g>
<g id="Calque_3_-_copie" class="st0">
	<g class="st1">
		<linearGradient id="SVGID_9_" gradientUnits="userSpaceOnUse" x1="624.1584" y1="187.2199" x2="806.7053" y2="404.7708">
			<stop  offset="0" style="stop-color:#F7D844"/>
			<stop  offset="0.2264" style="stop-color:#F6D644"/>
			<stop  offset="0.4661" style="stop-color:#F4CE44"/>
			<stop  offset="0.7119" style="stop-color:#F2BF43"/>
			<stop  offset="0.9605" style="stop-color:#EEAA41"/>
			<stop  offset="1" style="stop-color:#EDA641"/>
		</linearGradient>
		<path class="st23" d="M562.93,256.21c13.28-3.72,27.19-6.04,41.38-6.9c1.63-0.11,3.38-0.2,5.3-0.25c0.57-0.02,1.15-0.04,1.73-0.06
			c1.17-0.04,2.34-0.09,3.5-0.1c3.4,0,6.97,0.02,10.51,0.18c7.27,0.18,14.38,0.97,20.98,1.79c3.86,0.51,7.29,1.06,10.53,1.69
			c0.55,0.1,1.13,0.21,1.7,0.32c1.14,0.21,2.29,0.42,3.42,0.65l5.1,1.11c1.7,0.37,3.48,0.81,5.28,1.3l4.94,1.32
			c2.54,0.7,5.03,1.46,7.44,2.2l2.6,0.79c1.15,0.36,2.25,0.71,3.35,1.07c1.81,0.58,3.68,1.18,5.5,1.71
			c0.95,0.26,1.96,0.55,2.97,0.84c2,0.57,3.89,1.12,5.82,1.59l4.59,1.23c0.87,0.22,1.8,0.44,2.72,0.65
			c0.56,0.13,1.12,0.26,1.68,0.39c1.76,0.44,3.47,0.8,5.29,1.18c1.24,0.26,2.47,0.52,3.71,0.8c11.8,2.42,24.06,4.18,36.42,5.22
			c11.92,1.05,24.14,1.36,37.37,0.96c6.33-0.18,12.63-0.64,18.07-1.08c-20.09-54.02-72.11-92.51-133.13-92.51
			c-54.62,0-102.03,30.85-125.78,76.07C558.18,257.62,560.5,256.9,562.93,256.21z"/>
		<linearGradient id="SVGID_10_" gradientUnits="userSpaceOnUse" x1="604.7501" y1="203.4966" x2="787.2971" y2="421.0475">
			<stop  offset="0" style="stop-color:#F7D844"/>
			<stop  offset="0.2264" style="stop-color:#F6D644"/>
			<stop  offset="0.4661" style="stop-color:#F4CE44"/>
			<stop  offset="0.7119" style="stop-color:#F2BF43"/>
			<stop  offset="0.9605" style="stop-color:#EEAA41"/>
			<stop  offset="1" style="stop-color:#EDA641"/>
		</linearGradient>
		<path class="st24" d="M797.07,285.87c-3.82,0.12-7.55,0.18-11.23,0.18c-9.43,0-18.44-0.39-27.29-1.16
			c-12.76-1.08-25.42-2.9-37.62-5.4l-0.1-0.02c-1.2-0.27-2.4-0.52-3.59-0.77c-1.83-0.38-3.72-0.78-5.61-1.25
			c-0.49-0.12-1.03-0.24-1.56-0.36c-1-0.23-2-0.46-3-0.72l-4.56-1.22c-2.01-0.5-4.08-1.09-6.07-1.66c-0.98-0.28-1.96-0.56-2.95-0.83
			c-2.02-0.59-3.95-1.21-5.82-1.81c-1.08-0.34-2.15-0.69-3.23-1.02l-2.59-0.79c-2.34-0.72-4.77-1.46-7.14-2.11l-4.94-1.32
			c-1.65-0.46-3.25-0.85-4.77-1.18l-5.05-1.1c-1.01-0.21-2.08-0.4-3.15-0.6c-0.6-0.11-1.19-0.22-1.79-0.33
			c-3.06-0.6-6.3-1.12-9.91-1.6c-6.32-0.78-13.15-1.54-20.01-1.71l-0.1,0c-3.17-0.14-6.32-0.17-10.06-0.17
			c-1.03,0.01-2.11,0.05-3.18,0.09c-0.61,0.02-1.22,0.05-1.82,0.06c-1.78,0.05-3.39,0.13-4.93,0.23
			c-13.53,0.82-26.74,3.02-39.31,6.54c-5.78,1.66-10.93,3.4-15.64,5.29c-3.88,9.61-6.74,19.74-8.45,30.26
			c6-2.56,12.53-4.84,19.99-6.98c13.64-3.82,27.91-6.2,42.46-7.09c1.66-0.12,3.47-0.2,5.46-0.26c0.55-0.02,1.11-0.04,1.68-0.06
			c1.22-0.05,2.44-0.09,3.66-0.1c3.99-0.01,7.32,0.03,10.73,0.18c7.47,0.19,14.71,0.99,21.42,1.82c4,0.53,7.53,1.1,10.87,1.75
			c0.52,0.1,1.08,0.2,1.64,0.31c1.18,0.22,2.36,0.43,3.54,0.68l0.1,0.02l5.04,1.1c1.79,0.39,3.66,0.85,5.54,1.37l4.91,1.31
			c2.65,0.73,5.17,1.5,7.61,2.25l2.58,0.78c1.21,0.38,2.33,0.73,3.45,1.09c1.83,0.59,3.57,1.15,5.3,1.65c1,0.28,2,0.56,3,0.85
			c1.96,0.56,3.81,1.09,5.65,1.55l0.17,0.05l4.45,1.19c0.87,0.22,1.74,0.42,2.61,0.62c0.57,0.13,1.14,0.26,1.72,0.4
			c1.71,0.42,3.38,0.78,5.15,1.15c1.25,0.26,2.5,0.52,3.74,0.8c11.59,2.38,23.63,4.1,35.79,5.13c11.74,1.03,23.77,1.34,36.79,0.94
			c6.61-0.19,13.18-0.68,18.75-1.15c2.63-0.23,5.24-0.52,7.79-0.85c-0.81-9.41-2.54-18.55-5.1-27.34c-0.48,0.05-0.95,0.1-1.43,0.14
			C810.84,285.16,804,285.68,797.07,285.87z"/>
		<linearGradient id="SVGID_11_" gradientUnits="userSpaceOnUse" x1="583.3755" y1="221.4319" x2="765.9225" y2="438.9828">
			<stop  offset="0" style="stop-color:#F7D844"/>
			<stop  offset="0.2264" style="stop-color:#F6D644"/>
			<stop  offset="0.4661" style="stop-color:#F4CE44"/>
			<stop  offset="0.7119" style="stop-color:#F2BF43"/>
			<stop  offset="0.9605" style="stop-color:#EEAA41"/>
			<stop  offset="1" style="stop-color:#EDA641"/>
		</linearGradient>
		<path class="st25" d="M797.21,333.87c-3.86,0.12-7.65,0.18-11.37,0.18c-9.57,0-18.73-0.39-27.73-1.18
			c-12.94-1.09-25.8-2.94-38.19-5.48l-0.21-0.04c-1.17-0.27-2.34-0.51-3.51-0.76c-1.87-0.39-3.81-0.8-5.79-1.29
			c-0.43-0.1-0.96-0.22-1.48-0.34c-1.04-0.24-2.08-0.48-3.12-0.75l-0.1-0.03l-4.42-1.18c-2.15-0.54-4.23-1.13-6.25-1.71
			c-0.97-0.28-1.93-0.55-2.9-0.82l-0.13-0.04c-2.01-0.59-3.98-1.22-5.88-1.83c-1.06-0.34-2.12-0.68-3.19-1.01l-2.56-0.78
			c-2.42-0.74-4.71-1.44-7.02-2.08l-4.9-1.31c-1.6-0.44-3.1-0.81-4.54-1.12l-5-1.09c-1.02-0.21-2.04-0.4-3.06-0.58
			c-0.6-0.11-1.21-0.22-1.81-0.34c-2.99-0.58-6.12-1.09-9.64-1.55c-6.15-0.76-12.84-1.5-19.48-1.67l-0.2-0.01
			c-3.06-0.14-6.14-0.16-9.83-0.16c-0.95,0.01-1.98,0.05-3,0.09c-0.62,0.02-1.24,0.05-1.85,0.06c-1.72,0.05-3.26,0.12-4.72,0.22
			c-13.23,0.81-26.09,2.95-38.31,6.37c-6.76,1.94-12.64,3.99-17.93,6.27c-2.55,1.11-5.59,2.47-8.5,3.94l-0.36,0.2
			c-0.17,0.09-0.33,0.18-0.49,0.27c0,1.36,0.02,2.71,0.06,4.06c0.01,0.44,0.03,0.87,0.05,1.3c0.04,0.94,0.08,1.88,0.13,2.81
			c0.03,0.49,0.06,0.99,0.09,1.48c0.06,0.9,0.13,1.79,0.21,2.68c0.04,0.47,0.08,0.95,0.13,1.42c0.1,1,0.21,2,0.32,3
			c0.04,0.34,0.07,0.69,0.12,1.03c0.17,1.33,0.35,2.65,0.55,3.97c0.04,0.29,0.1,0.58,0.14,0.87c0.01,0.09,0.03,0.17,0.04,0.26
			c4.9-1.86,10.13-3.59,15.84-5.23l0.15-0.04c14.57-4.08,29.85-6.63,45.41-7.59c1.92-0.13,3.91-0.23,6.07-0.29
			c0.5-0.01,1.02-0.03,1.55-0.05c1.36-0.05,2.72-0.1,4.08-0.11l0.2,0c3.51,0,7.32,0.02,11.18,0.19c8.07,0.21,15.7,1.05,22.75,1.93
			l0.21,0.03c4.18,0.55,7.98,1.17,11.59,1.87l1.56,0.29c1.29,0.24,2.59,0.48,3.88,0.74l0.26,0.06l5.04,1.1
			c2,0.43,4.11,0.95,6.23,1.53l5.1,1.36c2.75,0.76,5.35,1.56,7.88,2.33l2.78,0.84c1.17,0.36,2.33,0.74,3.5,1.11
			c1.7,0.55,3.31,1.06,4.82,1.51c1.01,0.28,2.01,0.57,3.02,0.85c1.83,0.52,3.56,1.02,5.13,1.41l0.44,0.11l4.36,1.16
			c0.74,0.19,1.48,0.36,2.22,0.53c0.6,0.14,1.21,0.28,1.81,0.42l0.23,0.06c1.35,0.33,2.89,0.66,4.52,1
			c1.27,0.27,2.55,0.54,3.82,0.82c10.97,2.24,22.38,3.87,33.9,4.85c11.2,0.99,22.64,1.27,35.07,0.89c6.26-0.18,12.56-0.65,17.91-1.1
			c1.79-0.16,3.55-0.35,5.29-0.55c0.01-0.04,0.02-0.07,0.03-0.11c0.31-1.22,0.6-2.45,0.87-3.68c0.07-0.32,0.14-0.63,0.21-0.95
			c0.22-1.02,0.43-2.04,0.63-3.07c0.07-0.36,0.14-0.72,0.21-1.08c0.2-1.08,0.39-2.16,0.56-3.24c0.04-0.27,0.09-0.54,0.13-0.81
			c0.21-1.37,0.41-2.74,0.58-4.12c0.02-0.14,0.03-0.27,0.05-0.41c0.15-1.21,0.28-2.42,0.4-3.63c0.04-0.42,0.08-0.85,0.11-1.27
			c0.08-0.95,0.16-1.9,0.22-2.85c0.03-0.47,0.06-0.95,0.09-1.42c0.01-0.2,0.02-0.41,0.03-0.61c-2.11,0.25-4.25,0.48-6.42,0.67
			C811.19,333.15,804.27,333.67,797.21,333.87z"/>
	</g>
	<path class="st16" d="M679.66,382.21c0.68,0.22,1.37,0.43,2.05,0.65c31.58,10.33,60.32,13.25,84.21,12.76
		c-15.44-22.18-21.8-47.93-28.35-78.27C722.93,341.18,704.79,362.75,679.66,382.21z"/>
	<linearGradient id="SVGID_12_" gradientUnits="userSpaceOnUse" x1="519.9913" y1="377.901" x2="843.4422" y2="377.901">
		<stop  offset="0.3631" style="stop-color:#689C39"/>
		<stop  offset="0.4924" style="stop-color:#78A934"/>
		<stop  offset="0.6672" style="stop-color:#88B62B"/>
		<stop  offset="0.8383" style="stop-color:#92BE23"/>
		<stop  offset="1" style="stop-color:#95C11F"/>
	</linearGradient>
	<path class="st26" d="M527.19,382.18c2.8-1.97,5.76-3.55,8.74-5.17c3.01-1.53,6.08-2.92,9.19-4.27c6.22-2.68,12.66-4.84,19.19-6.72
		c13.09-3.66,26.64-5.88,40.31-6.72c1.71-0.12,3.42-0.2,5.13-0.24c1.71-0.05,3.43-0.14,5.14-0.15c3.43,0,6.86,0.02,10.29,0.17
		c6.87,0.17,13.72,0.9,20.54,1.75c3.41,0.45,6.81,0.98,10.19,1.64c1.69,0.32,3.39,0.61,5.07,0.96l5.04,1.1
		c1.68,0.36,3.35,0.78,5.01,1.23l4.98,1.33c3.31,0.92,6.59,1.95,9.88,2.94c2.97,0.92,5.91,1.92,8.89,2.79
		c2.99,0.83,5.97,1.74,8.98,2.48l4.5,1.2c1.5,0.38,3.02,0.71,4.53,1.08c3.02,0.75,6.07,1.31,9.11,2c12.19,2.5,24.55,4.26,37.06,5.32
		c12.51,1.1,25.16,1.36,37.94,0.97c6.4-0.18,12.8-0.64,19.27-1.17c3.23-0.28,6.47-0.64,9.7-1.09c3.26-0.36,6.5-0.9,9.74-1.44
		l0.21-0.03c0.4-0.07,0.78,0.2,0.85,0.6c0.06,0.35-0.14,0.68-0.46,0.81c-24.58,9.71-51.08,13.39-77.35,13.35
		c-6.58-0.04-13.16-0.3-19.71-0.89c-3.28-0.23-6.55-0.65-9.82-1.01c-1.64-0.18-3.26-0.45-4.89-0.67c-1.63-0.24-3.26-0.44-4.88-0.74
		c-12.98-2.15-25.81-5.27-38.34-9.3c-12.37-4.06-25.03-7.22-37.86-9.43c-1.6-0.31-3.21-0.51-4.82-0.76
		c-1.61-0.23-3.22-0.51-4.83-0.7c-3.23-0.38-6.46-0.81-9.71-1.06c-6.48-0.62-12.99-0.92-19.5-1c-13.02-0.18-26.06,0.76-38.94,2.73
		c-6.44,0.96-12.84,2.2-19.17,3.74c-6.31,1.57-12.62,3.37-18.62,5.76c-0.38,0.15-0.82-0.03-0.97-0.42
		c-0.13-0.33-0.01-0.69,0.26-0.89L527.19,382.18z"/>
	<linearGradient id="SVGID_13_" gradientUnits="userSpaceOnUse" x1="714.8073" y1="336.9431" x2="787.0588" y2="336.9431">
		<stop  offset="0" style="stop-color:#95C11F"/>
		<stop  offset="0.1928" style="stop-color:#92BE23"/>
		<stop  offset="0.397" style="stop-color:#88B62B"/>
		<stop  offset="0.6056" style="stop-color:#78A934"/>
		<stop  offset="0.7598" style="stop-color:#689C39"/>
	</linearGradient>
	<path class="st27" d="M723.03,259.9c1.16,1.48,2.13,3.03,3.21,4.55c1.01,1.54,1.96,3.09,2.88,4.67c1.87,3.13,3.52,6.33,5.13,9.55
		c3.17,6.45,5.85,13.05,8.27,19.66c4.78,13.25,8.37,26.6,11.65,39.56c3.32,12.98,6.34,25.52,10.39,37.73
		c1.99,6.14,4.25,12.22,6.83,18.41c1.27,3.11,2.7,6.2,4.13,9.39c0.75,1.57,1.51,3.16,2.25,4.81c0.74,1.65,1.59,3.22,2.3,4.97
		l0.12,0.29c0.15,0.37-0.02,0.79-0.39,0.94c-0.27,0.11-0.56,0.05-0.76-0.13c-5.16-4.71-9.91-9.88-14.17-15.45
		c-4.2-5.61-7.87-11.62-11.04-17.86c-6.37-12.5-10.65-25.91-14.19-39.37c-3.37-13.53-6.02-27.17-8.88-40.74
		c-1.42-6.79-2.88-13.57-4.43-20.32c-1.48-6.77-3.05-13.52-4.75-20.24c-0.1-0.39,0.14-0.78,0.52-0.88c0.29-0.07,0.57,0.04,0.75,0.25
		L723.03,259.9z"/>
	<linearGradient id="SVGID_14_" gradientUnits="userSpaceOnUse" x1="639.7579" y1="329.7154" x2="769.1756" y2="329.7154">
		<stop  offset="0" style="stop-color:#95C11F"/>
		<stop  offset="0.2226" style="stop-color:#92BE23"/>
		<stop  offset="0.4583" style="stop-color:#88B62B"/>
		<stop  offset="0.6991" style="stop-color:#78A934"/>
		<stop  offset="0.8771" style="stop-color:#689C39"/>
	</linearGradient>
	<path class="st28" d="M762.37,265.9c-0.34,7.87-1.59,15.39-3.14,22.86c-0.84,3.72-1.79,7.42-2.82,11.09
		c-0.52,1.85-1.15,3.65-1.75,5.48c-0.62,1.82-1.18,3.66-1.88,5.45c-2.76,7.22-6.04,14.33-10.08,21.16
		c-0.99,1.72-2.07,3.38-3.12,5.07c-1.06,1.68-2.28,3.28-3.41,4.92c-1.19,1.6-2.36,3.23-3.62,4.78l-3.89,4.58
		c-2.6,3.05-5.52,5.79-8.38,8.58c-0.73,0.68-1.45,1.37-2.19,2.03l-2.29,1.9c-1.53,1.27-3.04,2.54-4.61,3.75
		c-1.53,1.26-3.17,2.35-4.78,3.48c-1.6,1.14-3.26,2.19-4.89,3.27c-3.24,2.2-6.73,3.94-10.11,5.84c-0.85,0.47-1.7,0.93-2.56,1.37
		l-2.63,1.21c-1.75,0.81-3.5,1.61-5.28,2.35l-2.65,1.13c-0.88,0.38-1.76,0.77-2.68,1.06c-1.82,0.63-3.62,1.29-5.45,1.89
		c-3.66,1.19-7.29,2.38-11.09,3.19c-3.75,0.9-7.57,1.62-11.46,2.14l-0.23,0.03c-0.4,0.05-0.77-0.23-0.82-0.63
		c-0.04-0.31,0.11-0.59,0.37-0.74c6.41-3.62,12.91-7.07,19.13-10.99l4.74-2.81c1.59-0.93,3.09-1.98,4.64-2.96l4.62-3l2.31-1.5
		l2.23-1.61c12.03-8.38,23.26-17.92,32.85-28.94c9.76-10.87,17.82-23.19,24.69-36.15c1.69-3.26,3.34-6.54,4.99-9.82l4.71-9.98
		l4.64-10.02l4.54-10.08c0.16-0.37,0.6-0.53,0.96-0.36c0.28,0.13,0.44,0.4,0.43,0.69L762.37,265.9z"/>
	<g class="st1">
		<path class="st6" d="M542.18,422.01l-24.77,21.38v-34.22l-4.54-2.79l4.54-5.21L542.18,422.01z M523.53,414.2v15.81l9.27-7.99
			L523.53,414.2z"/>
		<path class="st6" d="M559.14,443.45l-7.51-9.51L542,421.71l17.14-20.65l17.14,20.65l-9.63,12.23L559.14,443.45z M549.81,421.71
			l0.97,1.21l7.57,9.69l0.73,0.97l9.33-11.81l-0.67-0.79l-2.42-2.91l-4.42-5.39l-1.76-2.12L549.81,421.71z"/>
		<path class="st6" d="M585.48,415.05v28.28h-6.12v-42.15l17.38,12.11l17.8-12.11v42.15h-6.48v-27.8v-2.54l-8.05,5.57v24.89h-6.12
			v-24.77l-8.48-5.87v2.18L585.48,415.05z"/>
		<path class="st6" d="M627.93,432.25l-4.24,11.2l-6.12-1.51l16.35-40.88l15.5,40.15l-5.69,2.24l-4.3-11.2H627.93z M637.08,426.13
			l-3.39-8.84l-3.45,8.84H637.08z"/>
		<path class="st6" d="M658.57,443.45h-6.12v-42.39h6.12V443.45z"/>
		<path class="st6" d="M670.74,412.75v30.58h-6.12v-42.27l20.11,13.99v-13.99h6.12v42.27h-6.12V423.1v-0.54L670.74,412.75z"/>
		<path class="st6" d="M698.97,419.05l-0.06,0.06l-4.48-5.33l22.59-12.72l3.51,4.79l-16.29,9.93l5.21,6.48l-5.69,7.09l16.77,9.14
			l-3.51,4.97l-22.59-12.72l1.21-1.39l5.93-7.09L698.97,419.05z"/>
		<path class="st6" d="M621.35,480.42l-5.69,4.97l-9.69,8.54v-42.21l24.83,20.83l-0.55,0.42L621.35,480.42z M612.08,464.73v15.81
			l9.27-7.99l-2-1.7h-0.06L612.08,464.73z"/>
		<path class="st6" d="M652.78,493.68v-6.48l-19.2,6.72v-42.39h6.12v33.79l13.08-4.6v-29.19h6.12v42.15H652.78z"/>
		<path class="st6" d="M701.71,451.53l5.45,3.57l-15.32,13.08l12.66,9.02l-19.2,16.71l-5.33-3.57l14.72-12.66l-12.72-9.02
			L701.71,451.53z"/>
		<path class="st6" d="M723.15,493.92l-7.51-9.51l-9.63-12.23l17.14-20.65l17.14,20.65l-9.63,12.23L723.15,493.92z M713.82,472.18
			l0.97,1.21l7.57,9.69l0.73,0.97l9.33-11.81l-0.67-0.79l-2.42-2.91l-4.42-5.39l-1.76-2.12L713.82,472.18z"/>
		<path class="st6" d="M765.17,485.93l0.48,6.06l-22.29,1.76v-42.21h6.12v35.61L765.17,485.93z"/>
		<path class="st6" d="M770.81,469.51l-0.06,0.06l-4.48-5.33l22.59-12.72l3.51,4.79l-16.29,9.93l5.21,6.48l-5.69,7.09l16.78,9.14
			l-3.51,4.97l-22.59-12.72l1.21-1.39l5.94-7.09L770.81,469.51z"/>
		<path class="st6" d="M801.87,493.92h-6.12v-42.39h6.12V493.92z"/>
		<path class="st6" d="M829.73,485.93l0.48,6.06l-22.29,1.76v-42.21h6.12v35.61L829.73,485.93z"/>
	</g>
	<g class="st1">
		<g>
			<defs>
				<path id="SVGID_15_" d="M527.19,526.13c2.8-1.97,5.76-3.55,8.74-5.17c3.01-1.53,6.08-2.92,9.19-4.27
					c6.22-2.68,12.66-4.84,19.19-6.72c13.09-3.66,26.64-5.88,40.31-6.72c1.71-0.12,3.42-0.2,5.13-0.24
					c1.71-0.05,3.43-0.14,5.14-0.15c3.43,0,6.86,0.02,10.29,0.17c6.87,0.17,13.72,0.9,20.54,1.75c3.41,0.45,6.81,0.98,10.19,1.64
					c1.69,0.32,3.39,0.61,5.07,0.96l5.04,1.1c1.68,0.36,3.35,0.78,5.01,1.23l4.98,1.33c3.31,0.92,6.59,1.95,9.88,2.94
					c2.97,0.92,5.91,1.92,8.89,2.79c2.99,0.83,5.97,1.74,8.98,2.48l4.5,1.2c1.5,0.38,3.02,0.71,4.53,1.08
					c3.02,0.75,6.07,1.31,9.11,2c12.19,2.5,24.55,4.26,37.06,5.32c12.51,1.1,25.16,1.36,37.94,0.97c6.4-0.18,12.8-0.64,19.27-1.17
					c3.23-0.28,6.47-0.64,9.7-1.09c3.26-0.36,6.5-0.9,9.74-1.44l0.21-0.03c0.4-0.07,0.78,0.2,0.85,0.6
					c0.06,0.35-0.14,0.68-0.46,0.81c-24.58,9.71-51.08,13.39-77.35,13.35c-6.58-0.04-13.16-0.3-19.71-0.89
					c-3.28-0.23-6.55-0.65-9.82-1.01c-1.64-0.18-3.26-0.45-4.89-0.67c-1.63-0.24-3.26-0.44-4.88-0.74
					c-12.98-2.15-25.81-5.27-38.34-9.3c-12.37-4.06-25.03-7.22-37.86-9.43c-1.6-0.31-3.21-0.51-4.82-0.76
					c-1.61-0.23-3.22-0.51-4.83-0.7c-3.23-0.38-6.46-0.81-9.71-1.06c-6.48-0.62-12.99-0.92-19.5-1
					c-13.02-0.18-26.06,0.76-38.94,2.73c-6.44,0.96-12.84,2.2-19.17,3.74c-6.31,1.57-12.62,3.37-18.62,5.76
					c-0.38,0.15-0.82-0.03-0.97-0.42c-0.13-0.33-0.01-0.69,0.26-0.89L527.19,526.13z"/>
			</defs>
			<clipPath id="SVGID_16_">
				<use xlink:href="#SVGID_15_"  style="overflow:visible;"/>
			</clipPath>
			<rect x="526.69" y="502.85" class="st29" width="110.75" height="38.04"/>
			<rect x="637.45" y="502.85" class="st29" width="3.49" height="38.04"/>
			<rect x="640.94" y="502.85" class="st30" width="3.49" height="38.04"/>
			<rect x="644.43" y="502.85" class="st31" width="3.49" height="38.04"/>
			<rect x="647.92" y="502.85" class="st32" width="3.49" height="38.04"/>
			<rect x="651.41" y="502.85" class="st33" width="3.49" height="38.04"/>
			<rect x="654.9" y="502.85" class="st34" width="3.49" height="38.04"/>
			<rect x="658.39" y="502.85" class="st35" width="3.49" height="38.04"/>
			<rect x="661.89" y="502.85" class="st36" width="3.49" height="38.04"/>
			<rect x="665.38" y="502.85" class="st37" width="3.49" height="38.04"/>
			<rect x="668.87" y="502.85" class="st38" width="3.49" height="38.04"/>
			<rect x="672.36" y="502.85" class="st39" width="3.49" height="38.04"/>
			<rect x="675.85" y="502.85" class="st40" width="3.49" height="38.04"/>
			<rect x="679.34" y="502.85" class="st41" width="3.49" height="38.04"/>
			<rect x="682.83" y="502.85" class="st42" width="3.49" height="38.04"/>
			<rect x="686.33" y="502.85" class="st43" width="3.49" height="38.04"/>
			<rect x="689.82" y="502.85" class="st44" width="3.49" height="38.04"/>
			<rect x="693.31" y="502.85" class="st45" width="3.49" height="38.04"/>
			<rect x="696.8" y="502.85" class="st46" width="3.49" height="38.04"/>
			<rect x="700.29" y="502.85" class="st47" width="3.49" height="38.04"/>
			<rect x="703.78" y="502.85" class="st48" width="3.49" height="38.04"/>
			<rect x="707.27" y="502.85" class="st49" width="3.49" height="38.04"/>
			<rect x="710.77" y="502.85" class="st50" width="3.49" height="38.04"/>
			<rect x="714.26" y="502.85" class="st51" width="3.49" height="38.04"/>
			<rect x="717.75" y="502.85" class="st52" width="3.49" height="38.04"/>
			<rect x="721.24" y="502.85" class="st53" width="3.49" height="38.04"/>
			<rect x="724.73" y="502.85" class="st54" width="3.49" height="38.04"/>
			<rect x="728.22" y="502.85" class="st55" width="3.49" height="38.04"/>
			<rect x="731.72" y="502.85" class="st56" width="3.49" height="38.04"/>
			<rect x="735.21" y="502.85" class="st57" width="3.49" height="38.04"/>
			<rect x="738.7" y="502.85" class="st58" width="3.49" height="38.04"/>
			<rect x="742.19" y="502.85" class="st59" width="3.49" height="38.04"/>
			<rect x="745.68" y="502.85" class="st60" width="3.49" height="38.04"/>
			<rect x="749.17" y="502.85" class="st61" width="3.49" height="38.04"/>
			<rect x="752.66" y="502.85" class="st62" width="3.49" height="38.04"/>
			<rect x="756.16" y="502.85" class="st63" width="3.49" height="38.04"/>
			<rect x="759.65" y="502.85" class="st64" width="3.49" height="38.04"/>
			<rect x="763.14" y="502.85" class="st65" width="3.49" height="38.04"/>
			<rect x="766.63" y="502.85" class="st66" width="3.49" height="38.04"/>
			<rect x="770.12" y="502.85" class="st67" width="3.49" height="38.04"/>
			<rect x="773.61" y="502.85" class="st68" width="3.49" height="38.04"/>
			<rect x="777.1" y="502.85" class="st69" width="3.49" height="38.04"/>
			<rect x="780.6" y="502.85" class="st70" width="3.49" height="38.04"/>
			<rect x="784.09" y="502.85" class="st71" width="3.49" height="38.04"/>
			<rect x="787.58" y="502.85" class="st72" width="3.49" height="38.04"/>
			<rect x="791.07" y="502.85" class="st73" width="3.49" height="38.04"/>
			<rect x="794.56" y="502.85" class="st73" width="3.49" height="38.04"/>
			<rect x="798.05" y="502.85" class="st74" width="3.49" height="38.04"/>
			<rect x="801.54" y="502.85" class="st75" width="3.49" height="38.04"/>
			<rect x="805.04" y="502.85" class="st75" width="3.49" height="38.04"/>
			<rect x="808.53" y="502.85" class="st76" width="3.49" height="38.04"/>
			<rect x="812.02" y="502.85" class="st76" width="3.49" height="38.04"/>
			<rect x="815.51" y="502.85" class="st76" width="3.49" height="38.04"/>
			<rect x="819" y="502.85" class="st77" width="3.49" height="38.04"/>
			<rect x="822.49" y="502.85" class="st78" width="3.49" height="38.04"/>
			<rect x="825.98" y="502.85" class="st78" width="3.49" height="38.04"/>
			<rect x="829.48" y="502.85" class="st78" width="3.49" height="38.04"/>
			<rect x="832.97" y="502.85" class="st78" width="3.49" height="38.04"/>
			<rect x="836.46" y="502.85" class="st78" width="0.3" height="38.04"/>
		</g>
	</g>
</g>
<g id="Calque_3_-_copie_3">
	<g>
		<path class="st2" d="M404.02,235.95c13.28-3.72,27.19-6.04,41.38-6.9c1.63-0.11,3.38-0.2,5.3-0.25c0.57-0.02,1.15-0.04,1.73-0.06
			c1.17-0.04,2.34-0.09,3.5-0.1c3.4,0,6.97,0.02,10.51,0.18c7.27,0.18,14.38,0.97,20.98,1.79c3.86,0.51,7.29,1.06,10.53,1.69
			c0.55,0.1,1.13,0.21,1.7,0.32c1.14,0.21,2.29,0.42,3.42,0.65l5.1,1.11c1.7,0.37,3.48,0.81,5.28,1.3l4.94,1.32
			c2.54,0.7,5.03,1.46,7.44,2.2l2.6,0.79c1.15,0.36,2.25,0.71,3.35,1.07c1.81,0.58,3.68,1.18,5.5,1.71
			c0.95,0.26,1.96,0.55,2.97,0.84c2,0.57,3.89,1.12,5.82,1.59l4.59,1.23c0.87,0.22,1.8,0.44,2.72,0.65
			c0.56,0.13,1.12,0.26,1.68,0.39c1.76,0.44,3.47,0.8,5.29,1.18c1.24,0.26,2.47,0.52,3.71,0.8c11.8,2.42,24.06,4.18,36.42,5.22
			c11.92,1.05,24.14,1.36,37.37,0.96c6.33-0.18,12.63-0.64,18.07-1.08c-20.09-54.02-72.11-92.51-133.13-92.51
			c-54.62,0-102.03,30.85-125.78,76.07C399.26,237.36,401.58,236.64,404.02,235.95z"/>
		<path class="st2" d="M638.15,265.61c-3.82,0.12-7.55,0.18-11.23,0.18c-9.43,0-18.44-0.39-27.29-1.16
			c-12.76-1.08-25.42-2.9-37.62-5.4l-0.1-0.02c-1.2-0.27-2.4-0.52-3.59-0.77c-1.83-0.38-3.72-0.78-5.61-1.25
			c-0.49-0.12-1.03-0.24-1.56-0.36c-1-0.23-2-0.46-3-0.72l-4.56-1.22c-2.01-0.5-4.08-1.09-6.07-1.66c-0.98-0.28-1.96-0.56-2.95-0.83
			c-2.02-0.59-3.95-1.21-5.82-1.81c-1.08-0.34-2.15-0.69-3.23-1.02l-2.59-0.79c-2.34-0.72-4.77-1.46-7.14-2.11l-4.94-1.32
			c-1.65-0.46-3.25-0.85-4.77-1.18l-5.05-1.1c-1.01-0.21-2.08-0.4-3.15-0.6c-0.6-0.11-1.19-0.22-1.79-0.33
			c-3.06-0.6-6.3-1.12-9.91-1.6c-6.32-0.78-13.15-1.54-20.01-1.71l-0.1,0c-3.17-0.14-6.32-0.17-10.06-0.17
			c-1.03,0.01-2.11,0.05-3.18,0.09c-0.61,0.02-1.22,0.05-1.82,0.06c-1.78,0.05-3.39,0.13-4.93,0.23
			c-13.53,0.82-26.74,3.02-39.31,6.54c-5.78,1.66-10.93,3.4-15.64,5.29c-3.88,9.61-6.74,19.74-8.45,30.26
			c6-2.56,12.53-4.84,19.99-6.98c13.64-3.82,27.91-6.2,42.46-7.09c1.66-0.12,3.47-0.2,5.46-0.26c0.55-0.02,1.11-0.04,1.68-0.06
			c1.22-0.05,2.44-0.09,3.66-0.1c3.99-0.01,7.32,0.03,10.73,0.18c7.47,0.19,14.71,0.99,21.42,1.82c4,0.53,7.53,1.1,10.87,1.75
			c0.52,0.1,1.08,0.2,1.64,0.31c1.18,0.22,2.36,0.43,3.54,0.68l0.1,0.02l5.04,1.1c1.79,0.39,3.66,0.85,5.54,1.37l4.91,1.31
			c2.65,0.73,5.17,1.5,7.61,2.25l2.58,0.78c1.21,0.38,2.33,0.73,3.45,1.09c1.83,0.59,3.57,1.15,5.3,1.65c1,0.28,2,0.56,3,0.85
			c1.96,0.56,3.81,1.09,5.65,1.55l0.17,0.05l4.45,1.19c0.87,0.22,1.74,0.42,2.61,0.62c0.57,0.13,1.14,0.26,1.72,0.4
			c1.71,0.42,3.38,0.78,5.15,1.15c1.25,0.26,2.5,0.52,3.74,0.8c11.59,2.38,23.63,4.1,35.79,5.13c11.74,1.03,23.77,1.34,36.79,0.94
			c6.61-0.19,13.18-0.68,18.75-1.15c2.63-0.23,5.24-0.52,7.79-0.85c-0.81-9.41-2.54-18.55-5.1-27.34c-0.48,0.05-0.95,0.1-1.43,0.14
			C651.92,264.9,645.08,265.42,638.15,265.61z"/>
		<path class="st2" d="M638.29,313.61c-3.86,0.12-7.65,0.18-11.37,0.18c-9.57,0-18.73-0.39-27.73-1.18
			c-12.94-1.09-25.8-2.94-38.19-5.48l-0.21-0.04c-1.17-0.27-2.34-0.51-3.51-0.76c-1.87-0.39-3.81-0.8-5.79-1.29
			c-0.43-0.1-0.96-0.22-1.48-0.34c-1.04-0.24-2.08-0.48-3.12-0.75l-0.1-0.03l-4.42-1.18c-2.15-0.54-4.23-1.13-6.25-1.71
			c-0.97-0.28-1.93-0.55-2.9-0.82l-0.13-0.04c-2.01-0.59-3.98-1.22-5.88-1.83c-1.06-0.34-2.12-0.68-3.19-1.01l-2.56-0.78
			c-2.42-0.74-4.71-1.44-7.02-2.08l-4.9-1.31c-1.6-0.44-3.1-0.81-4.54-1.12l-5-1.09c-1.02-0.21-2.04-0.4-3.06-0.58
			c-0.6-0.11-1.21-0.22-1.81-0.34c-2.99-0.58-6.12-1.09-9.64-1.55c-6.15-0.76-12.84-1.5-19.48-1.67l-0.2-0.01
			c-3.06-0.14-6.14-0.16-9.83-0.16c-0.95,0.01-1.98,0.05-3,0.09c-0.62,0.02-1.24,0.05-1.85,0.06c-1.72,0.05-3.26,0.12-4.72,0.22
			c-13.23,0.81-26.09,2.95-38.31,6.37c-6.76,1.94-12.64,3.99-17.93,6.27c-2.55,1.11-5.59,2.47-8.5,3.94l-0.36,0.2
			c-0.17,0.09-0.33,0.18-0.49,0.27c0,1.36,0.02,2.71,0.06,4.06c0.01,0.44,0.03,0.87,0.05,1.3c0.04,0.94,0.08,1.88,0.13,2.81
			c0.03,0.49,0.06,0.99,0.09,1.48c0.06,0.9,0.13,1.79,0.21,2.68c0.04,0.47,0.08,0.95,0.13,1.42c0.1,1,0.21,2,0.32,3
			c0.04,0.34,0.07,0.69,0.12,1.03c0.17,1.33,0.35,2.65,0.55,3.97c0.04,0.29,0.1,0.58,0.14,0.87c0.01,0.09,0.03,0.17,0.04,0.26
			c4.9-1.86,10.13-3.59,15.84-5.23l0.15-0.04c14.57-4.08,29.85-6.63,45.41-7.59c1.92-0.13,3.91-0.23,6.07-0.29
			c0.5-0.01,1.02-0.03,1.55-0.05c1.36-0.05,2.72-0.1,4.08-0.11l0.2,0c3.51,0,7.32,0.02,11.18,0.19c8.07,0.21,15.7,1.05,22.75,1.93
			l0.21,0.03c4.18,0.55,7.98,1.17,11.59,1.87l1.56,0.29c1.29,0.24,2.59,0.48,3.88,0.74l0.26,0.06l5.04,1.1
			c2,0.43,4.11,0.95,6.23,1.53l5.1,1.36c2.75,0.76,5.35,1.56,7.88,2.33l2.78,0.84c1.17,0.36,2.33,0.74,3.5,1.11
			c1.7,0.55,3.31,1.06,4.82,1.51c1.01,0.28,2.01,0.57,3.02,0.85c1.83,0.52,3.56,1.02,5.13,1.41l0.44,0.11l4.36,1.16
			c0.74,0.19,1.48,0.36,2.22,0.53c0.6,0.14,1.21,0.28,1.81,0.42l0.23,0.06c1.35,0.33,2.89,0.66,4.52,1
			c1.27,0.27,2.55,0.54,3.82,0.82c10.97,2.24,22.38,3.87,33.9,4.85c11.2,0.99,22.64,1.27,35.07,0.89c6.26-0.18,12.56-0.65,17.91-1.1
			c1.79-0.16,3.55-0.35,5.29-0.55c0.01-0.04,0.02-0.07,0.03-0.11c0.31-1.22,0.6-2.45,0.87-3.68c0.07-0.32,0.14-0.63,0.21-0.95
			c0.22-1.02,0.43-2.04,0.63-3.07c0.07-0.36,0.14-0.72,0.21-1.08c0.2-1.08,0.39-2.16,0.56-3.24c0.04-0.27,0.09-0.54,0.13-0.81
			c0.21-1.37,0.41-2.74,0.58-4.12c0.02-0.14,0.03-0.27,0.05-0.41c0.15-1.21,0.28-2.42,0.4-3.63c0.04-0.42,0.08-0.85,0.11-1.27
			c0.08-0.95,0.16-1.9,0.22-2.85c0.03-0.47,0.06-0.95,0.09-1.42c0.01-0.2,0.02-0.41,0.03-0.61c-2.11,0.25-4.25,0.48-6.42,0.67
			C652.27,312.89,645.36,313.42,638.29,313.61z"/>
	</g>
	<path class="st6" d="M520.75,361.95c0.68,0.22,1.37,0.43,2.05,0.65c31.58,10.33,60.32,13.25,84.21,12.76
		c-15.44-22.18-21.8-47.93-28.35-78.27C564.02,320.92,545.88,342.49,520.75,361.95z"/>
	<path class="st5" d="M368.27,361.92c2.8-1.97,5.76-3.55,8.74-5.17c3.01-1.53,6.08-2.92,9.19-4.27c6.22-2.68,12.66-4.84,19.19-6.72
		c13.09-3.66,26.64-5.88,40.31-6.72c1.71-0.12,3.42-0.2,5.13-0.24c1.71-0.05,3.43-0.14,5.14-0.15c3.43,0,6.86,0.02,10.29,0.17
		c6.87,0.17,13.72,0.9,20.54,1.75c3.41,0.45,6.81,0.98,10.19,1.64c1.69,0.32,3.39,0.61,5.07,0.96l5.04,1.1
		c1.68,0.36,3.35,0.78,5.01,1.23l4.98,1.33c3.31,0.92,6.59,1.95,9.88,2.94c2.97,0.92,5.91,1.92,8.89,2.79
		c2.99,0.83,5.97,1.74,8.98,2.48l4.5,1.2c1.5,0.38,3.02,0.71,4.53,1.08c3.02,0.75,6.07,1.31,9.11,2c12.19,2.5,24.55,4.26,37.06,5.32
		c12.51,1.1,25.16,1.36,37.94,0.97c6.4-0.18,12.8-0.64,19.27-1.17c3.23-0.28,6.47-0.64,9.7-1.09c3.26-0.36,6.5-0.9,9.74-1.44
		l0.21-0.03c0.4-0.07,0.78,0.2,0.85,0.6c0.06,0.35-0.14,0.68-0.46,0.81c-24.58,9.71-51.08,13.39-77.35,13.35
		c-6.58-0.04-13.16-0.3-19.71-0.89c-3.28-0.23-6.55-0.65-9.82-1.01c-1.64-0.18-3.26-0.45-4.89-0.67c-1.63-0.24-3.26-0.44-4.88-0.74
		c-12.98-2.15-25.81-5.27-38.34-9.3c-12.37-4.06-25.03-7.22-37.86-9.43c-1.6-0.31-3.21-0.51-4.82-0.76
		c-1.61-0.23-3.22-0.51-4.83-0.7c-3.23-0.38-6.46-0.81-9.71-1.06c-6.48-0.62-12.99-0.92-19.5-1c-13.02-0.18-26.06,0.76-38.94,2.73
		c-6.44,0.96-12.84,2.2-19.17,3.74c-6.31,1.57-12.62,3.37-18.62,5.76c-0.38,0.15-0.82-0.03-0.97-0.42
		c-0.13-0.33-0.01-0.69,0.26-0.89L368.27,361.92z"/>
	<path class="st5" d="M564.11,239.65c1.16,1.48,2.13,3.03,3.21,4.55c1.01,1.54,1.96,3.09,2.88,4.67c1.87,3.13,3.52,6.33,5.13,9.55
		c3.17,6.45,5.85,13.05,8.27,19.66c4.78,13.25,8.37,26.6,11.65,39.56c3.32,12.98,6.34,25.52,10.39,37.73
		c1.99,6.14,4.25,12.22,6.83,18.41c1.27,3.11,2.7,6.2,4.13,9.39c0.75,1.57,1.51,3.16,2.25,4.81c0.74,1.65,1.59,3.22,2.3,4.97
		l0.12,0.29c0.15,0.37-0.02,0.79-0.39,0.94c-0.27,0.11-0.56,0.05-0.76-0.13c-5.16-4.71-9.91-9.88-14.17-15.45
		c-4.2-5.61-7.87-11.62-11.04-17.86c-6.37-12.5-10.65-25.91-14.19-39.37c-3.37-13.53-6.02-27.17-8.88-40.74
		c-1.42-6.79-2.88-13.57-4.43-20.32c-1.48-6.77-3.05-13.52-4.75-20.24c-0.1-0.39,0.14-0.78,0.52-0.88c0.29-0.07,0.57,0.04,0.75,0.25
		L564.11,239.65z"/>
	<path class="st5" d="M603.45,245.64c-0.34,7.87-1.59,15.39-3.14,22.86c-0.84,3.72-1.79,7.42-2.82,11.09
		c-0.52,1.85-1.15,3.65-1.75,5.48c-0.62,1.82-1.18,3.66-1.88,5.45c-2.76,7.22-6.04,14.33-10.08,21.16
		c-0.99,1.72-2.07,3.38-3.12,5.07c-1.06,1.68-2.28,3.28-3.41,4.92c-1.19,1.6-2.36,3.23-3.62,4.78l-3.89,4.58
		c-2.6,3.05-5.52,5.79-8.38,8.58c-0.73,0.68-1.45,1.37-2.19,2.03l-2.29,1.9c-1.53,1.27-3.04,2.54-4.61,3.75
		c-1.53,1.26-3.17,2.35-4.78,3.48c-1.6,1.14-3.26,2.19-4.89,3.27c-3.24,2.2-6.73,3.94-10.11,5.84c-0.85,0.47-1.7,0.93-2.56,1.37
		l-2.63,1.21c-1.75,0.81-3.5,1.61-5.28,2.35l-2.65,1.13c-0.88,0.38-1.76,0.77-2.68,1.06c-1.82,0.63-3.62,1.29-5.45,1.89
		c-3.66,1.19-7.29,2.38-11.09,3.19c-3.75,0.9-7.57,1.62-11.46,2.14l-0.23,0.03c-0.4,0.05-0.77-0.23-0.82-0.63
		c-0.04-0.31,0.11-0.59,0.37-0.74c6.41-3.62,12.91-7.07,19.13-10.99l4.74-2.81c1.59-0.93,3.09-1.98,4.64-2.96l4.62-3l2.31-1.5
		l2.23-1.61c12.03-8.38,23.26-17.92,32.85-28.94c9.76-10.87,17.82-23.19,24.69-36.15c1.69-3.26,3.34-6.54,4.99-9.82l4.71-9.98
		l4.64-10.02l4.54-10.08c0.16-0.37,0.6-0.53,0.96-0.36c0.28,0.13,0.44,0.4,0.43,0.69L603.45,245.64z"/>
	<g>
		<path class="st6" d="M389.26,401.76l-24.77,21.38v-34.22l-4.54-2.79l4.54-5.21L389.26,401.76z M370.61,393.94v15.81l9.27-7.99
			L370.61,393.94z"/>
		<path class="st6" d="M406.22,423.19l-7.51-9.51l-9.63-12.23l17.14-20.65l17.14,20.65l-9.63,12.23L406.22,423.19z M396.89,401.45
			l0.97,1.21l7.57,9.69l0.73,0.97l9.33-11.81l-0.67-0.79l-2.42-2.91l-4.42-5.39l-1.76-2.12L396.89,401.45z"/>
		<path class="st6" d="M432.56,394.79v28.28h-6.12v-42.15l17.38,12.11l17.8-12.11v42.15h-6.48v-27.8v-2.54l-8.05,5.57v24.89h-6.12
			v-24.77l-8.48-5.87v2.18L432.56,394.79z"/>
		<path class="st6" d="M475.01,411.99l-4.24,11.2l-6.12-1.51l16.35-40.88l15.5,40.15l-5.69,2.24l-4.3-11.2H475.01z M484.16,405.87
			l-3.39-8.84l-3.45,8.84H484.16z"/>
		<path class="st6" d="M505.66,423.19h-6.12V380.8h6.12V423.19z"/>
		<path class="st6" d="M517.83,392.49v30.58h-6.12V380.8l20.11,13.99V380.8h6.12v42.27h-6.12v-20.23v-0.54L517.83,392.49z"/>
		<path class="st6" d="M546.05,398.79l-0.06,0.06l-4.48-5.33l22.59-12.72l3.51,4.79l-16.29,9.93l5.21,6.48l-5.69,7.09l16.77,9.14
			l-3.51,4.97l-22.59-12.72l1.21-1.39l5.93-7.09L546.05,398.79z"/>
		<path class="st6" d="M468.43,460.16l-5.69,4.97l-9.69,8.54v-42.21l24.83,20.83l-0.55,0.42L468.43,460.16z M459.16,444.47v15.81
			l9.27-7.99l-2-1.7h-0.06L459.16,444.47z"/>
		<path class="st6" d="M499.86,473.42v-6.48l-19.2,6.72v-42.39h6.12v33.79l13.08-4.6v-29.19h6.12v42.15H499.86z"/>
		<path class="st6" d="M548.79,431.27l5.45,3.57l-15.32,13.08l12.66,9.02l-19.2,16.71l-5.33-3.57l14.72-12.66l-12.72-9.02
			L548.79,431.27z"/>
		<path class="st6" d="M570.23,473.66l-7.51-9.51l-9.63-12.23l17.14-20.65l17.14,20.65l-9.63,12.23L570.23,473.66z M560.91,451.92
			l0.97,1.21l7.57,9.69l0.73,0.97l9.33-11.81l-0.67-0.79l-2.42-2.91l-4.42-5.39l-1.76-2.12L560.91,451.92z"/>
		<path class="st6" d="M612.26,465.67l0.48,6.06l-22.29,1.76v-42.21h6.12v35.61L612.26,465.67z"/>
		<path class="st6" d="M617.89,449.26l-0.06,0.06l-4.48-5.33l22.59-12.72l3.51,4.79l-16.29,9.93l5.21,6.48l-5.69,7.09l16.78,9.14
			l-3.51,4.97l-22.59-12.72l1.21-1.39l5.94-7.09L617.89,449.26z"/>
		<path class="st6" d="M648.96,473.66h-6.12v-42.39h6.12V473.66z"/>
		<path class="st6" d="M676.82,465.67l0.48,6.06l-22.29,1.76v-42.21h6.12v35.61L676.82,465.67z"/>
	</g>
	<g>
		<g>
			<defs>
				<path id="SVGID_17_" d="M368.27,505.87c2.8-1.97,5.76-3.55,8.74-5.17c3.01-1.53,6.08-2.92,9.19-4.27
					c6.22-2.68,12.66-4.84,19.19-6.72c13.09-3.66,26.64-5.88,40.31-6.72c1.71-0.12,3.42-0.2,5.13-0.24
					c1.71-0.05,3.43-0.14,5.14-0.15c3.43,0,6.86,0.02,10.29,0.17c6.87,0.17,13.72,0.9,20.54,1.75c3.41,0.45,6.81,0.98,10.19,1.64
					c1.69,0.32,3.39,0.61,5.07,0.96l5.04,1.1c1.68,0.36,3.35,0.78,5.01,1.23l4.98,1.33c3.31,0.92,6.59,1.95,9.88,2.94
					c2.97,0.92,5.91,1.92,8.89,2.79c2.99,0.83,5.97,1.74,8.98,2.48l4.5,1.2c1.5,0.38,3.02,0.71,4.53,1.08
					c3.02,0.75,6.07,1.31,9.11,2c12.19,2.5,24.55,4.26,37.06,5.32c12.51,1.1,25.16,1.36,37.94,0.97c6.4-0.18,12.8-0.64,19.27-1.17
					c3.23-0.28,6.47-0.64,9.7-1.09c3.26-0.36,6.5-0.9,9.74-1.44l0.21-0.03c0.4-0.07,0.78,0.2,0.85,0.6
					c0.06,0.35-0.14,0.68-0.46,0.81c-24.58,9.71-51.08,13.39-77.35,13.35c-6.58-0.04-13.16-0.3-19.71-0.89
					c-3.28-0.23-6.55-0.65-9.82-1.01c-1.64-0.18-3.26-0.45-4.89-0.67c-1.63-0.24-3.26-0.44-4.88-0.74
					c-12.98-2.15-25.81-5.27-38.34-9.3c-12.37-4.06-25.03-7.22-37.86-9.43c-1.6-0.31-3.21-0.51-4.82-0.76
					c-1.61-0.23-3.22-0.51-4.83-0.7c-3.23-0.38-6.46-0.81-9.71-1.06c-6.48-0.62-12.99-0.92-19.5-1
					c-13.02-0.18-26.06,0.76-38.94,2.73c-6.44,0.96-12.84,2.2-19.17,3.74c-6.31,1.57-12.62,3.37-18.62,5.76
					c-0.38,0.15-0.82-0.03-0.97-0.42c-0.13-0.33-0.01-0.69,0.26-0.89L368.27,505.87z"/>
			</defs>
			<use xlink:href="#SVGID_17_"  style="overflow:visible;fill:#95C11F;"/>
			<clipPath id="SVGID_18_">
				<use xlink:href="#SVGID_17_"  style="overflow:visible;"/>
			</clipPath>
			<rect x="367.78" y="482.59" class="st79" width="110.75" height="38.04"/>
			<rect x="478.53" y="482.59" class="st79" width="3.49" height="38.04"/>
			<rect x="482.02" y="482.59" class="st79" width="3.49" height="38.04"/>
			<rect x="485.51" y="482.59" class="st79" width="3.49" height="38.04"/>
			<rect x="489" y="482.59" class="st79" width="3.49" height="38.04"/>
			<rect x="492.49" y="482.59" class="st79" width="3.49" height="38.04"/>
			<rect x="495.99" y="482.59" class="st79" width="3.49" height="38.04"/>
			<rect x="499.48" y="482.59" class="st79" width="3.49" height="38.04"/>
			<rect x="502.97" y="482.59" class="st79" width="3.49" height="38.04"/>
			<rect x="506.46" y="482.59" class="st79" width="3.49" height="38.04"/>
			<rect x="509.95" y="482.59" class="st79" width="3.49" height="38.04"/>
			<rect x="513.44" y="482.59" class="st79" width="3.49" height="38.04"/>
			<rect x="516.94" y="482.59" class="st79" width="3.49" height="38.04"/>
			<rect x="520.43" y="482.59" class="st79" width="3.49" height="38.04"/>
			<rect x="523.92" y="482.59" class="st79" width="3.49" height="38.04"/>
			<rect x="527.41" y="482.59" class="st79" width="3.49" height="38.04"/>
			<rect x="530.9" y="482.59" class="st79" width="3.49" height="38.04"/>
			<rect x="534.39" y="482.59" class="st79" width="3.49" height="38.04"/>
			<rect x="537.88" y="482.59" class="st79" width="3.49" height="38.04"/>
			<rect x="541.38" y="482.59" class="st79" width="3.49" height="38.04"/>
			<rect x="544.87" y="482.59" class="st79" width="3.49" height="38.04"/>
			<rect x="548.36" y="482.59" class="st79" width="3.49" height="38.04"/>
			<rect x="551.85" y="482.59" class="st79" width="3.49" height="38.04"/>
			<rect x="555.34" y="482.59" class="st79" width="3.49" height="38.04"/>
			<rect x="558.83" y="482.59" class="st79" width="3.49" height="38.04"/>
			<rect x="562.32" y="482.59" class="st79" width="3.49" height="38.04"/>
			<rect x="565.82" y="482.59" class="st79" width="3.49" height="38.04"/>
			<rect x="569.31" y="482.59" class="st79" width="3.49" height="38.04"/>
			<rect x="572.8" y="482.59" class="st79" width="3.49" height="38.04"/>
			<rect x="576.29" y="482.59" class="st79" width="3.49" height="38.04"/>
			<rect x="579.78" y="482.59" class="st79" width="3.49" height="38.04"/>
			<rect x="583.27" y="482.59" class="st79" width="3.49" height="38.04"/>
			<rect x="586.76" y="482.59" class="st79" width="3.49" height="38.04"/>
			<rect x="590.26" y="482.59" class="st79" width="3.49" height="38.04"/>
			<rect x="593.75" y="482.59" class="st79" width="3.49" height="38.04"/>
			<rect x="597.24" y="482.59" class="st79" width="3.49" height="38.04"/>
			<rect x="600.73" y="482.59" class="st79" width="3.49" height="38.04"/>
			<rect x="604.22" y="482.59" class="st79" width="3.49" height="38.04"/>
			<rect x="607.71" y="482.59" class="st79" width="3.49" height="38.04"/>
			<rect x="611.2" y="482.59" class="st79" width="3.49" height="38.04"/>
			<rect x="614.7" y="482.59" class="st79" width="3.49" height="38.04"/>
			<rect x="618.19" y="482.59" class="st79" width="3.49" height="38.04"/>
			<rect x="621.68" y="482.59" class="st79" width="3.49" height="38.04"/>
			<rect x="625.17" y="482.59" class="st79" width="3.49" height="38.04"/>
			<rect x="628.66" y="482.59" class="st79" width="3.49" height="38.04"/>
			<rect x="632.15" y="482.59" class="st79" width="3.49" height="38.04"/>
			<rect x="635.65" y="482.59" class="st79" width="3.49" height="38.04"/>
			<rect x="639.14" y="482.59" class="st79" width="3.49" height="38.04"/>
			<rect x="642.63" y="482.59" class="st79" width="3.49" height="38.04"/>
			<rect x="646.12" y="482.59" class="st79" width="3.49" height="38.04"/>
			<rect x="649.61" y="482.59" class="st79" width="3.49" height="38.04"/>
			<rect x="653.1" y="482.59" class="st79" width="3.49" height="38.04"/>
			<rect x="656.59" y="482.59" class="st79" width="3.49" height="38.04"/>
			<rect x="660.09" y="482.59" class="st79" width="3.49" height="38.04"/>
			<rect x="663.58" y="482.59" class="st79" width="3.49" height="38.04"/>
			<rect x="667.07" y="482.59" class="st79" width="3.49" height="38.04"/>
			<rect x="670.56" y="482.59" class="st79" width="3.49" height="38.04"/>
			<rect x="674.05" y="482.59" class="st79" width="3.49" height="38.04"/>
			<rect x="677.54" y="482.59" class="st79" width="0.3" height="38.04"/>
		</g>
	</g>
</g>
</svg>
